<?xml version="1.0" encoding="UTF-8" standalone="no"?><!DOCTYPE svg PUBLIC "-//W3C//DTD SVG 1.1//EN" "http://www.w3.org/Graphics/SVG/1.1/DTD/svg11.dtd"><svg width="100%" height="100%" viewBox="0 0 42 42" version="1.1" xmlns="http://www.w3.org/2000/svg" xmlns:xlink="http://www.w3.org/1999/xlink" xml:space="preserve" xmlns:serif="http://www.serif.com/" style="fill-rule:evenodd;clip-rule:evenodd;stroke-linejoin:round;stroke-miterlimit:1.41421;"><g><path d="M41.103,0l-40.449,0c-0.361,0 -0.654,0.293 -0.654,0.654l0,39.751c0,0.361 0.293,0.654 0.654,0.654l40.449,0c0.361,0 0.654,-0.293 0.654,-0.654l0,-31.382l0,-8.369c0,-0.361 -0.293,-0.654 -0.654,-0.654Zm-0.654,39.751l-39.141,0l0,-30.075l39.141,0l0,30.075l0,0Zm0,-31.382l-39.141,0l0,-7.061l39.141,0l0,7.061l0,0Z" style="fill:url(#_Linear1);fill-rule:nonzero;"/><path d="M34.826,2.79l-7.671,0c-0.361,0 -0.654,0.292 -0.654,0.653c0,0.361 0.293,0.654 0.654,0.654l7.671,0c0.361,0 0.654,-0.293 0.654,-0.654c0,-0.361 -0.293,-0.653 -0.654,-0.653Z" style="fill:url(#_Linear2);fill-rule:nonzero;"/><path d="M38.313,2.79l-1.395,0c-0.361,0 -0.653,0.292 -0.653,0.653c0,0.361 0.292,0.654 0.653,0.654l1.395,0c0.361,0 0.654,-0.293 0.654,-0.654c0,-0.361 -0.293,-0.653 -0.654,-0.653Z" style="fill:url(#_Linear3);fill-rule:nonzero;"/><path d="M21.576,2.092c-1.515,0 -2.746,1.232 -2.746,2.746c0,1.514 1.232,2.746 2.746,2.746c1.514,0 2.746,-1.232 2.746,-2.746c0,-1.514 -1.232,-2.746 -2.746,-2.746Zm0,4.185c-0.793,0 -1.439,-0.646 -1.439,-1.439c0,-0.793 0.646,-1.438 1.439,-1.438c0.793,0 1.438,0.645 1.438,1.438c0,0.793 -0.645,1.439 -1.438,1.439Z" style="fill:url(#_Linear4);fill-rule:nonzero;"/><path d="M13.904,2.092c-1.514,0 -2.746,1.232 -2.746,2.746c0,1.514 1.232,2.746 2.746,2.746c1.514,0 2.746,-1.232 2.746,-2.746c0,-1.514 -1.232,-2.746 -2.746,-2.746Zm0,4.185c-0.793,0 -1.438,-0.646 -1.438,-1.439c0,-0.793 0.645,-1.438 1.438,-1.438c0.793,0 1.439,0.645 1.439,1.438c0,0.793 -0.646,1.439 -1.439,1.439Z" style="fill:url(#_Linear5);fill-rule:nonzero;"/><path d="M6.233,2.092c-1.514,0 -2.746,1.232 -2.746,2.746c0,1.514 1.232,2.746 2.746,2.746c1.514,0 2.746,-1.232 2.746,-2.746c0,-1.514 -1.232,-2.746 -2.746,-2.746Zm0,4.185c-0.793,0 -1.438,-0.646 -1.438,-1.439c0,-0.793 0.645,-1.438 1.438,-1.438c0.793,0 1.438,0.645 1.438,1.438c0,0.793 -0.645,1.439 -1.438,1.439Z" style="fill:url(#_Linear6);fill-rule:nonzero;"/><path d="M13.773,18.577c0.014,-0.523 -0.177,-1.021 -0.537,-1.402c-0.36,-0.38 -0.847,-0.597 -1.371,-0.611c-0.522,-0.015 -1.021,0.176 -1.402,0.536l-6.625,6.277c-0.397,0.376 -0.62,0.905 -0.612,1.452c0.007,0.546 0.246,1.069 0.653,1.433l6.625,5.928c0.361,0.323 0.825,0.5 1.308,0.5c0,0 0,0 0,0c0.557,0 1.09,-0.238 1.462,-0.654c0.721,-0.806 0.652,-2.048 -0.154,-2.769l-5.037,-4.507l5.078,-4.812c0.38,-0.36 0.598,-0.847 0.612,-1.371Zm-1.511,0.422l-5.594,5.3c-0.133,0.125 -0.207,0.301 -0.205,0.484c0.003,0.182 0.082,0.356 0.218,0.478l5.567,4.98c0.269,0.241 0.292,0.655 0.051,0.924c-0.125,0.14 -0.298,0.218 -0.487,0.218c-0.161,0 -0.316,-0.06 -0.436,-0.167l-6.625,-5.928c-0.136,-0.121 -0.215,-0.296 -0.218,-0.478c-0.002,-0.182 0.072,-0.358 0.204,-0.484l6.625,-6.276c0.123,-0.116 0.282,-0.18 0.45,-0.18c0.006,0 0.012,0.001 0.018,0.001c0.174,0.004 0.336,0.077 0.457,0.204c0.12,0.126 0.183,0.292 0.179,0.467c-0.005,0.175 -0.077,0.337 -0.204,0.457Z" style="fill:url(#_Linear7);fill-rule:nonzero;"/><path d="M37.919,23.377l-6.626,-6.277c-0.785,-0.743 -2.029,-0.71 -2.773,0.075c-0.743,0.785 -0.71,2.029 0.075,2.773l5.079,4.812l-5.037,4.507c-0.806,0.721 -0.875,1.963 -0.154,2.77c0.371,0.415 0.904,0.653 1.462,0.653c0,0 0,0 0,0c0.483,0 0.947,-0.177 1.307,-0.5l6.626,-5.927c0.407,-0.365 0.645,-0.888 0.653,-1.434c0.008,-0.547 -0.216,-1.076 -0.612,-1.452Zm-0.913,1.911l-6.626,5.928c-0.12,0.107 -0.274,0.167 -0.435,0.167l0,0c-0.189,0 -0.362,-0.078 -0.488,-0.218c-0.24,-0.269 -0.217,-0.683 0.051,-0.923l5.567,-4.981c0.136,-0.122 0.215,-0.295 0.218,-0.478c0.003,-0.183 -0.071,-0.359 -0.204,-0.484l-5.594,-5.3c-0.262,-0.248 -0.273,-0.663 -0.025,-0.924c0.128,-0.136 0.301,-0.204 0.474,-0.204c0.162,0 0.324,0.059 0.45,0.179l6.625,6.276c0.132,0.126 0.207,0.302 0.204,0.484l0,0c-0.002,0.182 -0.081,0.357 -0.217,0.478Z" style="fill:url(#_Linear8);fill-rule:nonzero;"/><path d="M25.911,18.712c-0.137,-0.506 -0.462,-0.929 -0.916,-1.19c0,0 0,0 0,0c-0.937,-0.539 -2.139,-0.216 -2.678,0.721l-6.626,11.507c-0.539,0.937 -0.216,2.139 0.722,2.679c0.297,0.171 0.635,0.261 0.977,0.261c0.7,0 1.352,-0.376 1.701,-0.983l6.625,-11.506c0.262,-0.455 0.331,-0.983 0.195,-1.489Zm-1.328,0.836l-6.625,11.507c-0.116,0.202 -0.334,0.328 -0.568,0.328c-0.115,0 -0.224,-0.03 -0.325,-0.088c-0.312,-0.179 -0.42,-0.58 -0.24,-0.892l6.625,-11.508c0.121,-0.209 0.341,-0.327 0.568,-0.327c0.11,0 0.222,0.028 0.325,0.087c0.151,0.087 0.26,0.228 0.305,0.397c0.045,0.168 0.022,0.345 -0.065,0.496Z" style="fill:url(#_Linear9);fill-rule:nonzero;"/></g><defs><linearGradient id="_Linear1" x1="0" y1="0" x2="1" y2="0" gradientUnits="userSpaceOnUse" gradientTransform="matrix(41.7566,0,0,41.0592,0,20.5296)"><stop offset="0" style="stop-color:#2ee38f;stop-opacity:1"/><stop offset="1" style="stop-color:#2e4db5;stop-opacity:1"/></linearGradient><linearGradient id="_Linear2" x1="0" y1="0" x2="1" y2="0" gradientUnits="userSpaceOnUse" gradientTransform="matrix(41.7566,0,0,41.0592,0,20.5296)"><stop offset="0" style="stop-color:#2ee38f;stop-opacity:1"/><stop offset="1" style="stop-color:#2e4db5;stop-opacity:1"/></linearGradient><linearGradient id="_Linear3" x1="0" y1="0" x2="1" y2="0" gradientUnits="userSpaceOnUse" gradientTransform="matrix(41.7566,0,0,41.0592,0,20.5296)"><stop offset="0" style="stop-color:#2ee38f;stop-opacity:1"/><stop offset="1" style="stop-color:#2e4db5;stop-opacity:1"/></linearGradient><linearGradient id="_Linear4" x1="0" y1="0" x2="1" y2="0" gradientUnits="userSpaceOnUse" gradientTransform="matrix(41.7566,0,0,41.0592,0,20.5296)"><stop offset="0" style="stop-color:#2ee38f;stop-opacity:1"/><stop offset="1" style="stop-color:#2e4db5;stop-opacity:1"/></linearGradient><linearGradient id="_Linear5" x1="0" y1="0" x2="1" y2="0" gradientUnits="userSpaceOnUse" gradientTransform="matrix(41.7566,0,0,41.0592,0,20.5296)"><stop offset="0" style="stop-color:#2ee38f;stop-opacity:1"/><stop offset="1" style="stop-color:#2e4db5;stop-opacity:1"/></linearGradient><linearGradient id="_Linear6" x1="0" y1="0" x2="1" y2="0" gradientUnits="userSpaceOnUse" gradientTransform="matrix(41.7566,0,0,41.0592,0,20.5296)"><stop offset="0" style="stop-color:#2ee38f;stop-opacity:1"/><stop offset="1" style="stop-color:#2e4db5;stop-opacity:1"/></linearGradient><linearGradient id="_Linear7" x1="0" y1="0" x2="1" y2="0" gradientUnits="userSpaceOnUse" gradientTransform="matrix(41.7566,0,0,41.0592,0,20.5296)"><stop offset="0" style="stop-color:#2ee38f;stop-opacity:1"/><stop offset="1" style="stop-color:#2e4db5;stop-opacity:1"/></linearGradient><linearGradient id="_Linear8" x1="0" y1="0" x2="1" y2="0" gradientUnits="userSpaceOnUse" gradientTransform="matrix(41.7566,0,0,41.0592,0,20.5296)"><stop offset="0" style="stop-color:#2ee38f;stop-opacity:1"/><stop offset="1" style="stop-color:#2e4db5;stop-opacity:1"/></linearGradient><linearGradient id="_Linear9" x1="0" y1="0" x2="1" y2="0" gradientUnits="userSpaceOnUse" gradientTransform="matrix(41.7566,0,0,41.0592,0,20.5296)"><stop offset="0" style="stop-color:#2ee38f;stop-opacity:1"/><stop offset="1" style="stop-color:#2e4db5;stop-opacity:1"/></linearGradient></defs></svg>