<?xml version="1.0" encoding="UTF-8" standalone="no"?><!DOCTYPE svg PUBLIC "-//W3C//DTD SVG 1.1//EN" "http://www.w3.org/Graphics/SVG/1.1/DTD/svg11.dtd"><svg width="100%" height="100%" viewBox="0 0 72 83" version="1.1" xmlns="http://www.w3.org/2000/svg" xmlns:xlink="http://www.w3.org/1999/xlink" xml:space="preserve" xmlns:serif="http://www.serif.com/" style="fill-rule:evenodd;clip-rule:evenodd;stroke-linejoin:round;stroke-miterlimit:1.41421;"><g><path d="M21.612,56.241c3.577,-2.414 5.934,-6.504 5.934,-11.135c0,-7.403 -6.023,-13.425 -13.425,-13.425c-7.403,0 -13.425,6.022 -13.425,13.425c0,4.631 2.357,8.721 5.934,11.135c-3.822,1.091 -6.63,4.613 -6.63,8.78l0,15.989c0,0.729 0.591,1.32 1.32,1.32l25.601,0c0.73,0 1.321,-0.591 1.321,-1.32l0,-15.989c0,-4.167 -2.808,-7.689 -6.63,-8.78Zm-4.447,4.116l-1.603,-1.826l3.207,0l-1.604,1.826Zm-5.117,-1.826l3.182,3.624l-2.979,2.221l-1.436,-5.845l1.233,0Zm9.729,0.575c0.168,0.076 0.333,0.159 0.493,0.248l-0.47,4.814l-2.699,-2.013l2.676,-3.049Zm-18.441,-14c0,-5.947 4.838,-10.785 10.785,-10.785c5.947,0 10.784,4.838 10.784,10.785c0,5.947 -4.837,10.784 -10.784,10.784c-5.947,0 -10.785,-4.837 -10.785,-10.784Zm-0.695,19.915c0,-3.233 2.376,-5.921 5.474,-6.41l2.047,8.329c0.105,0.43 0.419,0.779 0.836,0.928c0.145,0.052 0.296,0.078 0.446,0.078c0.28,0 0.558,-0.09 0.789,-0.262l3.612,-2.694l0,14.699l-6.686,0l0,-13.087c0,-0.729 -0.591,-1.321 -1.32,-1.321c-0.729,0 -1.32,0.592 -1.32,1.321l0,13.087l-3.878,0l0,-14.668Zm22.96,14.668l-7.116,0l0,-14.699l3.612,2.694c0.232,0.173 0.51,0.262 0.79,0.262c0.18,0 0.362,-0.037 0.533,-0.113c0.436,-0.193 0.734,-0.605 0.78,-1.079l0.492,-5.04c0.577,0.969 0.909,2.1 0.909,3.307l0,14.668l0,0Z" style="fill:url(#_Linear1);fill-rule:nonzero;"/><path d="M21.435,68.728c-0.21,-0.497 -0.709,-0.828 -1.251,-0.814c-0.577,0.015 -1.084,0.413 -1.24,0.968c-0.151,0.539 0.071,1.14 0.539,1.45c0.462,0.307 1.087,0.29 1.529,-0.046c0.472,-0.358 0.655,-1.01 0.423,-1.558c-0.034,-0.079 0.034,0.08 0,0Z" style="fill:url(#_Linear2);fill-rule:nonzero;"/><path d="M13.649,42.649c-0.206,-0.487 -0.687,-0.815 -1.219,-0.815c-0.53,0 -1.016,0.327 -1.219,0.815c-0.217,0.519 -0.068,1.144 0.361,1.508c0.437,0.371 1.08,0.417 1.564,0.111c0.533,-0.338 0.76,-1.035 0.513,-1.619c-0.034,-0.079 0.033,0.079 0,0Z" style="fill:url(#_Linear3);fill-rule:nonzero;"/><path d="M19.846,43.659c0.21,0.497 0.709,0.828 1.251,0.814c0.586,-0.015 1.106,-0.43 1.248,-0.999c0.126,-0.507 -0.067,-1.056 -0.484,-1.373c-0.457,-0.347 -1.108,-0.354 -1.572,-0.015c-0.489,0.356 -0.675,1.013 -0.443,1.573c0.033,0.079 -0.034,-0.081 0,0Z" style="fill:url(#_Linear4);fill-rule:nonzero;"/><path d="M53.9,30.835c0.216,0.138 0.463,0.207 0.71,0.207c0.218,0 0.436,-0.054 0.634,-0.163c0.423,-0.232 0.686,-0.676 0.686,-1.158l0,-3.07l1.343,0c2.262,0 4.102,-1.84 4.102,-4.101l0,-13.803c0,-2.262 -1.84,-4.102 -4.102,-4.102l-13.677,0l0,-0.543c0,-2.262 -1.84,-4.102 -4.102,-4.102l-24.23,0c-2.261,0 -4.101,1.84 -4.101,4.102l0,13.801c0,2.261 1.84,4.101 4.101,4.101l1.344,0l0,3.072c0,0.482 0.262,0.926 0.685,1.158c0.198,0.109 0.417,0.163 0.635,0.163c0.247,0 0.493,-0.07 0.709,-0.207l6.567,-4.186l3.738,0l0,0.546c0,2.261 1.84,4.101 4.101,4.101l14.289,0l6.568,4.184Zm-29.08,-11.471c-0.252,0 -0.498,0.072 -0.71,0.207l-4.862,3.098l0,-1.985c0,-0.729 -0.591,-1.32 -1.32,-1.32l-2.664,0c-0.805,0 -1.461,-0.655 -1.461,-1.461l0,-13.801c0,-0.806 0.656,-1.461 1.461,-1.461l24.23,0c0.805,0 1.461,0.655 1.461,1.461l0,0.543l-7.912,0c-1.788,0 -3.311,1.151 -3.871,2.75l-10.075,0c-0.729,0 -1.32,0.591 -1.32,1.321c0,0.729 0.591,1.32 1.32,1.32l9.845,0l0,2.207l-9.845,0c-0.729,0 -1.32,0.591 -1.32,1.321c0,0.729 0.591,1.32 1.32,1.32l9.845,0l0,4.48l-4.122,0Zm6.762,3.186l0,-13.803c0,-0.806 0.656,-1.461 1.461,-1.461l24.23,0c0.805,0 1.461,0.655 1.461,1.461l0,13.802c0,0.806 -0.656,1.461 -1.461,1.461l-2.664,0c-0.729,0 -1.32,0.591 -1.32,1.32l0,1.985l-4.863,-3.098c-0.212,-0.135 -0.458,-0.207 -0.709,-0.207l-14.674,0c-0.805,0 -1.461,-0.655 -1.461,-1.46Z" style="fill:url(#_Linear5);fill-rule:nonzero;"/><path d="M36.877,14.681l16.562,0c0.73,0 1.32,-0.591 1.32,-1.32c0,-0.729 -0.59,-1.32 -1.32,-1.32l-16.562,0c-0.729,0 -1.32,0.591 -1.32,1.32c0,0.729 0.591,1.32 1.32,1.32Z" style="fill:url(#_Linear6);fill-rule:nonzero;"/><path d="M54.759,18.209c0,-0.729 -0.59,-1.321 -1.32,-1.321l-16.562,0c-0.729,0 -1.32,0.592 -1.32,1.321c0,0.729 0.591,1.32 1.32,1.32l16.562,0c0.73,0 1.32,-0.591 1.32,-1.32Z" style="fill:url(#_Linear7);fill-rule:nonzero;"/><path d="M64.802,56.241c3.578,-2.414 5.935,-6.504 5.935,-11.135c0,-7.403 -6.023,-13.425 -13.425,-13.425c-7.403,0 -13.426,6.022 -13.426,13.425c0,4.631 2.357,8.721 5.935,11.135c-3.823,1.091 -6.63,4.613 -6.63,8.78l0,15.989c0,0.729 0.591,1.32 1.32,1.32l25.601,0c0.73,0 1.321,-0.591 1.321,-1.32l0,-15.989c0,-4.167 -2.808,-7.689 -6.631,-8.78Zm-2.783,2.29c-1.003,1.58 -2.766,2.597 -4.708,2.597c-1.941,0 -3.704,-1.017 -4.707,-2.597l9.415,0Zm-15.492,-13.425c0,-5.947 4.838,-10.785 10.785,-10.785c5.946,0 10.784,4.838 10.784,10.785c0,5.947 -4.838,10.784 -10.784,10.784c-5.947,0 -10.785,-4.837 -10.785,-10.784Zm-0.696,19.915c0,-2.708 1.668,-5.033 4.03,-6.004c1.329,2.853 4.226,4.751 7.45,4.751c3.225,0 6.122,-1.898 7.45,-4.752c2.363,0.972 4.031,3.297 4.031,6.005l0,4.687l-4.625,0l0,-3.106c0,-0.729 -0.591,-1.32 -1.32,-1.32c-0.729,0 -1.32,0.591 -1.32,1.32l0,13.087l-15.695,0l0,-14.668l-0.001,0Zm18.336,14.668l0,-7.341l4.625,0l0,7.341l-4.625,0Z" style="fill:url(#_Linear8);fill-rule:nonzero;"/><path d="M57.783,43.659c0.233,0.55 0.818,0.89 1.413,0.8c0.522,-0.078 0.955,-0.47 1.086,-0.981c0.137,-0.536 -0.089,-1.114 -0.547,-1.422c-0.519,-0.35 -1.223,-0.269 -1.667,0.163c-0.369,0.38 -0.488,0.948 -0.285,1.44c0.033,0.079 -0.034,-0.081 0,0Z" style="fill:url(#_Linear9);fill-rule:nonzero;"/><path d="M51.662,42.895c-0.032,-0.169 -0.104,-0.33 -0.195,-0.475c-0.666,-0.975 -2.227,-0.631 -2.404,0.54c-0.161,1.064 1.018,1.876 1.956,1.341c0.488,-0.278 0.756,-0.852 0.643,-1.406c-0.016,-0.084 0.018,0.086 0,0Z" style="fill:url(#_Linear10);fill-rule:nonzero;"/><path d="M57.571,47.677c-0.412,-0.412 -1.081,-0.412 -1.493,0c-0.353,0.353 -0.822,0.547 -1.321,0.547c-0.499,0 -0.968,-0.194 -1.321,-0.547c-0.412,-0.412 -1.082,-0.412 -1.494,0c-0.412,0.413 -0.412,1.081 0,1.494c0.776,0.776 1.796,1.164 2.815,1.164c1.019,0 2.039,-0.388 2.814,-1.164c0.413,-0.413 0.413,-1.081 0,-1.494Z" style="fill:url(#_Linear11);fill-rule:nonzero;"/></g><defs><linearGradient id="_Linear1" x1="0" y1="0" x2="1" y2="0" gradientUnits="userSpaceOnUse" gradientTransform="matrix(71.4325,0,0,82.3298,2.4869e-14,41.1649)"><stop offset="0" style="stop-color:#2ee38f;stop-opacity:1"/><stop offset="1" style="stop-color:#2e4db5;stop-opacity:1"/></linearGradient><linearGradient id="_Linear2" x1="0" y1="0" x2="1" y2="0" gradientUnits="userSpaceOnUse" gradientTransform="matrix(71.4325,0,0,82.3298,2.4869e-14,41.1649)"><stop offset="0" style="stop-color:#2ee38f;stop-opacity:1"/><stop offset="1" style="stop-color:#2e4db5;stop-opacity:1"/></linearGradient><linearGradient id="_Linear3" x1="0" y1="0" x2="1" y2="0" gradientUnits="userSpaceOnUse" gradientTransform="matrix(71.4325,0,0,82.3298,2.4869e-14,41.1649)"><stop offset="0" style="stop-color:#2ee38f;stop-opacity:1"/><stop offset="1" style="stop-color:#2e4db5;stop-opacity:1"/></linearGradient><linearGradient id="_Linear4" x1="0" y1="0" x2="1" y2="0" gradientUnits="userSpaceOnUse" gradientTransform="matrix(71.4325,0,0,82.3298,2.4869e-14,41.1649)"><stop offset="0" style="stop-color:#2ee38f;stop-opacity:1"/><stop offset="1" style="stop-color:#2e4db5;stop-opacity:1"/></linearGradient><linearGradient id="_Linear5" x1="0" y1="0" x2="1" y2="0" gradientUnits="userSpaceOnUse" gradientTransform="matrix(71.4325,0,0,82.3298,2.4869e-14,41.1649)"><stop offset="0" style="stop-color:#2ee38f;stop-opacity:1"/><stop offset="1" style="stop-color:#2e4db5;stop-opacity:1"/></linearGradient><linearGradient id="_Linear6" x1="0" y1="0" x2="1" y2="0" gradientUnits="userSpaceOnUse" gradientTransform="matrix(71.4325,0,0,82.3298,2.4869e-14,41.1649)"><stop offset="0" style="stop-color:#2ee38f;stop-opacity:1"/><stop offset="1" style="stop-color:#2e4db5;stop-opacity:1"/></linearGradient><linearGradient id="_Linear7" x1="0" y1="0" x2="1" y2="0" gradientUnits="userSpaceOnUse" gradientTransform="matrix(71.4325,0,0,82.3298,2.4869e-14,41.1649)"><stop offset="0" style="stop-color:#2ee38f;stop-opacity:1"/><stop offset="1" style="stop-color:#2e4db5;stop-opacity:1"/></linearGradient><linearGradient id="_Linear8" x1="0" y1="0" x2="1" y2="0" gradientUnits="userSpaceOnUse" gradientTransform="matrix(71.4325,0,0,82.3298,2.4869e-14,41.1649)"><stop offset="0" style="stop-color:#2ee38f;stop-opacity:1"/><stop offset="1" style="stop-color:#2e4db5;stop-opacity:1"/></linearGradient><linearGradient id="_Linear9" x1="0" y1="0" x2="1" y2="0" gradientUnits="userSpaceOnUse" gradientTransform="matrix(71.4325,0,0,82.3298,2.4869e-14,41.1649)"><stop offset="0" style="stop-color:#2ee38f;stop-opacity:1"/><stop offset="1" style="stop-color:#2e4db5;stop-opacity:1"/></linearGradient><linearGradient id="_Linear10" x1="0" y1="0" x2="1" y2="0" gradientUnits="userSpaceOnUse" gradientTransform="matrix(71.4325,0,0,82.3298,2.4869e-14,41.1649)"><stop offset="0" style="stop-color:#2ee38f;stop-opacity:1"/><stop offset="1" style="stop-color:#2e4db5;stop-opacity:1"/></linearGradient><linearGradient id="_Linear11" x1="0" y1="0" x2="1" y2="0" gradientUnits="userSpaceOnUse" gradientTransform="matrix(71.4325,0,0,82.3298,2.4869e-14,41.1649)"><stop offset="0" style="stop-color:#2ee38f;stop-opacity:1"/><stop offset="1" style="stop-color:#2e4db5;stop-opacity:1"/></linearGradient></defs></svg>