<?xml version="1.0" encoding="UTF-8" standalone="no"?><!DOCTYPE svg PUBLIC "-//W3C//DTD SVG 1.1//EN" "http://www.w3.org/Graphics/SVG/1.1/DTD/svg11.dtd"><svg width="100%" height="100%" viewBox="0 0 42 44" version="1.1" xmlns="http://www.w3.org/2000/svg" xmlns:xlink="http://www.w3.org/1999/xlink" xml:space="preserve" xmlns:serif="http://www.serif.com/" style="fill-rule:evenodd;clip-rule:evenodd;stroke-linejoin:round;stroke-miterlimit:1.41421;"><g><path d="M19.107,33.249c-0.488,0 -0.884,0.396 -0.884,0.885l0,0.396c0,0.488 0.396,0.884 0.884,0.884c0.489,0 0.885,-0.396 0.885,-0.884l0,-0.396c0,-0.489 -0.396,-0.885 -0.885,-0.885Z" style="fill:url(#_Linear1);fill-rule:nonzero;"/><path d="M40.938,26.528l-2.658,-2.188c0.134,-0.881 0.202,-1.776 0.202,-2.667c0,-0.892 -0.068,-1.787 -0.202,-2.667l2.658,-2.189c0.849,-0.7 1.066,-1.898 0.516,-2.85l-3.614,-6.261c-0.399,-0.692 -1.141,-1.121 -1.939,-1.121c-0.27,0 -0.536,0.048 -0.788,0.143l-3.226,1.209c-1.401,-1.125 -2.95,-2.021 -4.618,-2.671l-0.566,-3.393c-0.18,-1.085 -1.109,-1.873 -2.209,-1.873l-7.231,0c-1.1,0 -2.029,0.788 -2.209,1.873l-0.566,3.393c-1.668,0.65 -3.218,1.546 -4.618,2.671l-3.223,-1.207c-0.254,-0.097 -0.52,-0.146 -0.791,-0.146c-0.796,0 -1.54,0.43 -1.938,1.121l-3.616,6.262c-0.55,0.952 -0.333,2.15 0.517,2.85l2.657,2.189c-0.133,0.88 -0.201,1.775 -0.201,2.667c0,0.891 0.068,1.786 0.201,2.667l-2.657,2.189c-0.85,0.699 -1.067,1.898 -0.517,2.849l3.615,6.262c0.4,0.692 1.143,1.121 1.939,1.121c0.272,0 0.538,-0.049 0.787,-0.144l3.226,-1.208c1.401,1.124 2.951,2.02 4.619,2.67l0.565,3.392c0.18,1.086 1.109,1.874 2.21,1.874l7.231,0c1.099,0 2.029,-0.787 2.209,-1.872l0.566,-3.394c1.668,-0.65 3.217,-1.546 4.618,-2.67l3.223,1.207c0.254,0.096 0.52,0.145 0.79,0.145c0.797,0 1.54,-0.43 1.939,-1.121l3.615,-6.262c0.55,-0.952 0.333,-2.15 -0.516,-2.85Zm-16.444,15.048l-4.502,0l0,-4.184c0,-0.489 -0.396,-0.885 -0.885,-0.885c-0.488,0 -0.884,0.396 -0.884,0.885l0,4.184l-0.925,0l0,-9.702c1.152,0.41 2.376,0.625 3.629,0.625c0,0 0.006,0 0.006,0c1.257,0 2.483,-0.214 3.634,-0.624l0,9.695l0,0c-0.024,0.003 -0.048,0.006 -0.073,0.006Zm-3.561,-10.846l-0.005,0c-4.992,-0.002 -9.053,-4.066 -9.053,-9.058c0,-2.905 1.369,-5.571 3.654,-7.259l0,6.454c0,0.311 0.163,0.599 0.429,0.758l4.519,2.712c0.281,0.168 0.631,0.168 0.911,0l4.519,-2.712c0.266,-0.16 0.429,-0.447 0.429,-0.758l0,-6.454c2.285,1.688 3.654,4.355 3.654,7.26c0,2.415 -0.943,4.688 -2.656,6.401c-1.713,1.713 -3.986,2.656 -6.401,2.656Zm18.989,-2.236l-3.615,6.261c-0.112,0.195 -0.349,0.29 -0.573,0.205l-3.706,-1.388c-0.301,-0.113 -0.639,-0.053 -0.884,0.155c-1.433,1.222 -3.05,2.167 -4.808,2.812l0,-5.484c0.812,-0.47 1.567,-1.049 2.249,-1.73c2.047,-2.047 3.174,-4.765 3.174,-7.652c0,-4.084 -2.263,-7.775 -5.906,-9.631c-0.274,-0.139 -0.601,-0.126 -0.864,0.034c-0.262,0.161 -0.422,0.447 -0.422,0.755l0,7.535l-3.635,2.181l-3.634,-2.181l0,-7.535c0,-0.308 -0.16,-0.594 -0.422,-0.755c-0.263,-0.16 -0.59,-0.173 -0.864,-0.034c-3.643,1.856 -5.906,5.546 -5.906,9.63c0,2.942 1.15,5.686 3.238,7.726c0.665,0.651 1.399,1.205 2.185,1.658l0,5.523c-1.8,-0.646 -3.454,-1.605 -4.916,-2.852c-0.163,-0.138 -0.367,-0.211 -0.574,-0.211c-0.105,0 -0.21,0.018 -0.311,0.056l-3.71,1.39c-0.052,0.02 -0.106,0.03 -0.161,0.03c-0.167,0 -0.323,-0.09 -0.407,-0.236l-3.616,-6.263c-0.115,-0.199 -0.069,-0.451 0.109,-0.599l3.052,-2.513c0.248,-0.204 0.366,-0.527 0.308,-0.842c-0.172,-0.942 -0.259,-1.906 -0.259,-2.866c0,-0.961 0.087,-1.925 0.259,-2.866c0.058,-0.316 -0.06,-0.638 -0.307,-0.842l-3.053,-2.514c-0.178,-0.147 -0.224,-0.399 -0.108,-0.599l3.615,-6.262c0.112,-0.194 0.348,-0.29 0.573,-0.205l3.706,1.388c0.301,0.113 0.639,0.053 0.884,-0.155c1.474,-1.257 3.143,-2.222 4.96,-2.868c0.303,-0.108 0.523,-0.371 0.576,-0.688l0.65,-3.899c0.038,-0.228 0.233,-0.394 0.464,-0.394l7.231,0c0.231,0 0.426,0.166 0.464,0.394l0.65,3.899c0.053,0.317 0.274,0.581 0.576,0.688c1.817,0.646 3.486,1.611 4.96,2.868c0.245,0.208 0.583,0.268 0.884,0.155l3.708,-1.389c0.053,-0.02 0.109,-0.03 0.165,-0.03c0.167,0 0.322,0.09 0.406,0.236l3.616,6.262c0.115,0.2 0.069,0.452 -0.11,0.599l-3.052,2.514c-0.247,0.204 -0.365,0.526 -0.307,0.842c0.171,0.941 0.259,1.905 0.259,2.866c0,0.96 -0.087,1.924 -0.26,2.866c-0.057,0.315 0.06,0.638 0.308,0.841l3.052,2.514c0.179,0.147 0.225,0.399 0.109,0.6Z" style="fill:url(#_Linear2);fill-rule:nonzero;"/></g><defs><linearGradient id="_Linear1" x1="0" y1="0" x2="1" y2="0" gradientUnits="userSpaceOnUse" gradientTransform="matrix(41.7566,0,0,43.3452,2.93099e-14,21.6726)"><stop offset="0" style="stop-color:#2ee38f;stop-opacity:1"/><stop offset="1" style="stop-color:#2e4db5;stop-opacity:1"/></linearGradient><linearGradient id="_Linear2" x1="0" y1="0" x2="1" y2="0" gradientUnits="userSpaceOnUse" gradientTransform="matrix(41.7566,0,0,43.3452,2.93099e-14,21.6726)"><stop offset="0" style="stop-color:#2ee38f;stop-opacity:1"/><stop offset="1" style="stop-color:#2e4db5;stop-opacity:1"/></linearGradient></defs></svg>