<?xml version="1.0" encoding="UTF-8" standalone="no"?><!DOCTYPE svg PUBLIC "-//W3C//DTD SVG 1.1//EN" "http://www.w3.org/Graphics/SVG/1.1/DTD/svg11.dtd"><svg width="100%" height="100%" viewBox="0 0 75 75" version="1.1" xmlns="http://www.w3.org/2000/svg" xmlns:xlink="http://www.w3.org/1999/xlink" xml:space="preserve" xmlns:serif="http://www.serif.com/" style="fill-rule:evenodd;clip-rule:evenodd;stroke-linejoin:round;stroke-miterlimit:1.41421;"><g id="Layer2"><path d="M74.08,46.253c-0.476,-0.19 -1.019,-0.071 -1.372,0.299l-5.329,5.601l0,-33.271l0.006,0l5.084,-5.49c0.468,-0.506 0.437,-1.296 -0.069,-1.763c0,0 0,-0.001 -0.001,-0.002l-1.83,-1.703l2.543,-2.745c0.467,-0.506 0.436,-1.295 -0.07,-1.763l-5.49,-5.084c-0.506,-0.468 -1.295,-0.438 -1.763,0.068l-8.872,9.58l-43.192,0c-0.004,-3.445 -2.794,-6.235 -6.239,-6.239l-1.247,0c-3.444,0.004 -6.235,2.794 -6.239,6.239l0,53.653c0,0.689 0.559,1.247 1.248,1.247l18.888,0l-2.62,3.147c-0.441,0.53 -0.369,1.316 0.161,1.757l5.753,4.79c0.53,0.441 1.317,0.369 1.758,-0.16l0,-0.001l6.386,-7.672c0.441,-0.532 0.725,-1.176 0.819,-1.861l22.864,0l-7.499,7.875c-0.475,0.499 -0.455,1.289 0.044,1.764c0.232,0.22 0.54,0.344 0.86,0.343l24.955,0c0.689,0 1.248,-0.559 1.248,-1.247l0,-26.203c0,-0.511 -0.311,-0.97 -0.785,-1.159m-4.289,-33.653l-2.412,2.609l0,-1.836l1.497,-1.622l0.915,0.849m-4.908,-0.223l0,0.018l-10.552,11.405l-3.665,-3.391l12.712,-13.738l3.665,3.391l-2.145,2.315l-0.015,0m-12.949,12.603l-2.87,0.837l0.613,-2.927l2.257,2.09m14.835,-21.972l3.662,3.389l-1.695,1.835l-3.663,-3.392l1.696,-1.832m-60.53,3.228l1.247,0c2.068,0 3.744,1.676 3.744,3.744l0,47.446c-1.074,-0.826 -2.389,-1.276 -3.744,-1.28l-1.247,0c-1.355,0.004 -2.67,0.454 -3.744,1.28l0,-47.446c0,-2.068 1.676,-3.744 3.744,-3.744m0,52.405l1.247,0c2.068,0 3.744,1.677 3.744,3.744l-8.735,0c0,-2.067 1.676,-3.744 3.744,-3.744m23.419,6.504l-0.799,0.958l-3.835,-3.193l0.797,-0.959c0.441,-0.53 1.228,-0.602 1.757,-0.161c0.001,0 0.001,0.001 0.001,0.001l1.918,1.592c0.53,0.441 0.602,1.227 0.162,1.757c-0.001,0.001 -0.001,0.001 -0.001,0.001l0,0.004m-5.589,6.713l-3.836,-3.193l3.194,-3.837l3.835,3.193l-3.193,3.837m7.8,-9.473c-0.208,-0.346 -0.47,-0.655 -0.777,-0.916l-1.917,-1.596c-1.589,-1.323 -3.949,-1.107 -5.272,0.482l-1.693,2.03l-8.485,0l0,-49.91l40.884,0l-6.622,7.156c-0.095,0.106 -0.17,0.23 -0.222,0.363c-0.015,0.036 -0.026,0.07 -0.039,0.107c-0.012,0.037 -0.031,0.075 -0.04,0.115l-1.489,7.122c-0.141,0.675 0.292,1.336 0.967,1.476c0.2,0.042 0.407,0.034 0.603,-0.023l6.988,-2.037c0.033,-0.01 0.06,-0.029 0.091,-0.04c0.031,-0.011 0.064,-0.027 0.098,-0.044c0.139,-0.063 0.266,-0.153 0.374,-0.263l9.565,-10.338l0,38.704l-7.249,7.612l-25.765,0m40.5,9.982l-20.796,0l20.796,-21.836l0,21.836" style="fill:url(#_Linear1);fill-rule:nonzero;"/><path d="M58.739,69.101c0.193,0.466 0.648,0.77 1.153,0.77l8.734,0c0.689,0 1.248,-0.558 1.248,-1.247l0,-8.735c0,-0.689 -0.559,-1.247 -1.248,-1.247c-0.331,0 -0.648,0.131 -0.882,0.365l-8.734,8.734c-0.357,0.357 -0.464,0.894 -0.271,1.36m8.64,-6.2l0,4.475l-4.475,0l4.475,-4.475" style="fill:url(#_Linear2);fill-rule:nonzero;"/><path d="M54.901,47.412l-8.734,0l0,-13.725c-0.002,-0.332 -0.134,-0.649 -0.367,-0.884l-7.487,-7.486c-0.487,-0.487 -1.277,-0.487 -1.764,0l-7.487,7.486c-0.232,0.235 -0.363,0.553 -0.364,0.884l0,13.725l-8.734,0c-0.689,0 -1.248,0.559 -1.248,1.247c0,0.69 0.559,1.248 1.248,1.248l34.937,0c0.689,0 1.248,-0.558 1.248,-1.248c0,-0.688 -0.559,-1.247 -1.248,-1.247m-17.469,-19.448l4.475,4.475l-8.949,0l4.474,-4.475m-6.238,6.97l12.477,0l0,12.478l-12.477,0l0,-12.478" style="fill:url(#_Linear3);fill-rule:nonzero;"/><path d="M36.184,19.961l2.496,0l0,2.496l-2.496,0l0,-2.496" style="fill:url(#_Linear4);fill-rule:nonzero;"/><path d="M36.184,52.403l2.496,0l0,2.495l-2.496,0l0,-2.495" style="fill:url(#_Linear5);fill-rule:nonzero;"/></g><defs><linearGradient id="_Linear1" x1="0" y1="0" x2="1" y2="0" gradientUnits="userSpaceOnUse" gradientTransform="matrix(74.8649,0,0,74.8631,0,37.4315)"><stop offset="0" style="stop-color:#2ee38f;stop-opacity:1"/><stop offset="1" style="stop-color:#2e4db5;stop-opacity:1"/></linearGradient><linearGradient id="_Linear2" x1="0" y1="0" x2="1" y2="0" gradientUnits="userSpaceOnUse" gradientTransform="matrix(74.8649,0,0,74.8631,0,37.4315)"><stop offset="0" style="stop-color:#2ee38f;stop-opacity:1"/><stop offset="1" style="stop-color:#2e4db5;stop-opacity:1"/></linearGradient><linearGradient id="_Linear3" x1="0" y1="0" x2="1" y2="0" gradientUnits="userSpaceOnUse" gradientTransform="matrix(74.8649,0,0,74.8631,0,37.4315)"><stop offset="0" style="stop-color:#2ee38f;stop-opacity:1"/><stop offset="1" style="stop-color:#2e4db5;stop-opacity:1"/></linearGradient><linearGradient id="_Linear4" x1="0" y1="0" x2="1" y2="0" gradientUnits="userSpaceOnUse" gradientTransform="matrix(74.8649,0,0,74.8631,0,37.4315)"><stop offset="0" style="stop-color:#2ee38f;stop-opacity:1"/><stop offset="1" style="stop-color:#2e4db5;stop-opacity:1"/></linearGradient><linearGradient id="_Linear5" x1="0" y1="0" x2="1" y2="0" gradientUnits="userSpaceOnUse" gradientTransform="matrix(74.8649,0,0,74.8631,0,37.4315)"><stop offset="0" style="stop-color:#2ee38f;stop-opacity:1"/><stop offset="1" style="stop-color:#2e4db5;stop-opacity:1"/></linearGradient></defs></svg>