<?xml version="1.0" encoding="UTF-8" standalone="no"?><!DOCTYPE svg PUBLIC "-//W3C//DTD SVG 1.1//EN" "http://www.w3.org/Graphics/SVG/1.1/DTD/svg11.dtd"><svg width="100%" height="100%" viewBox="0 0 45 44" version="1.1" xmlns="http://www.w3.org/2000/svg" xmlns:xlink="http://www.w3.org/1999/xlink" xml:space="preserve" xmlns:serif="http://www.serif.com/" style="fill-rule:evenodd;clip-rule:evenodd;stroke-linejoin:round;stroke-miterlimit:1.41421;"><g><g><circle cx="36.612" cy="20.452" r="0.813" style="fill:url(#_Linear1);"/><circle cx="7.336" cy="20.452" r="0.813" style="fill:url(#_Linear2);"/><circle cx="9.776" cy="22.892" r="0.813" style="fill:url(#_Linear3);"/><circle cx="14.655" cy="22.892" r="0.813" style="fill:url(#_Linear4);"/><circle cx="12.215" cy="25.332" r="0.813" style="fill:url(#_Linear5);"/><circle cx="17.095" cy="25.332" r="0.813" style="fill:url(#_Linear6);"/><circle cx="19.534" cy="27.771" r="0.813" style="fill:url(#_Linear7);"/><circle cx="24.414" cy="27.771" r="0.813" style="fill:url(#_Linear8);"/><circle cx="26.853" cy="25.332" r="0.813" style="fill:url(#_Linear9);"/><circle cx="21.974" cy="30.211" r="0.813" style="fill:url(#_Linear10);"/><circle cx="29.293" cy="22.892" r="0.813" style="fill:url(#_Linear11);"/><circle cx="34.172" cy="22.892" r="0.813" style="fill:url(#_Linear12);"/><circle cx="31.733" cy="25.332" r="0.813" style="fill:url(#_Linear13);"/><path d="M37.049,25.999l7.64,-4.365l-7.853,-4.459l7.853,-4.486l-22.344,-12.689l-22.345,12.689l7.852,4.486l-7.852,4.459l7.852,4.486l-7.852,4.459l22.345,12.766l22.344,-12.766l-7.852,-4.459l0.058,-0.033c0.057,-0.021 0.104,-0.055 0.154,-0.088Zm-14.704,-24.129l19.058,10.823l-6.21,3.549l-12.847,7.34l-19.06,-10.889l19.059,-10.823Zm-13.295,16.495c0.132,0.271 0.404,0.461 0.726,0.461c0.219,0 0.416,-0.089 0.562,-0.23l1.84,1.05c-0.431,0.021 -0.776,0.37 -0.776,0.806c0,0.449 0.364,0.814 0.813,0.814c0.449,0 0.814,-0.365 0.814,-0.814c0,-0.14 -0.045,-0.266 -0.108,-0.381l8.401,4.8c-0.095,0.132 -0.161,0.286 -0.161,0.461c0,0.449 0.364,0.813 0.813,0.813c0.449,0 0.813,-0.364 0.813,-0.813c0,-0.042 -0.017,-0.077 -0.023,-0.117l8.174,-4.67c0.048,0.403 0.378,0.72 0.795,0.72c0.448,0 0.813,-0.365 0.813,-0.813c0,-0.265 -0.134,-0.489 -0.33,-0.637l1.79,-1.023c0.056,0.012 0.108,0.033 0.166,0.033c0.361,0 0.656,-0.239 0.763,-0.564l0.26,-0.149l6.208,3.525l-1.612,0.922c-0.128,-0.283 -0.409,-0.481 -0.739,-0.481c-0.449,0 -0.813,0.364 -0.813,0.813c0,0.176 0.068,0.33 0.162,0.462l-3.208,1.833l-5.195,2.968c0.063,-0.115 0.109,-0.242 0.109,-0.383c0,-0.449 -0.364,-0.814 -0.813,-0.814c-0.449,0 -0.814,0.365 -0.814,0.814c0,0.436 0.347,0.786 0.779,0.805l-1.841,1.052c-0.146,-0.142 -0.344,-0.231 -0.564,-0.231c-0.449,0 -0.813,0.364 -0.813,0.813c0,0.065 0.023,0.123 0.037,0.184l-3.732,2.132l-4.487,-2.563c-0.106,-0.326 -0.402,-0.566 -0.764,-0.566c-0.059,0 -0.112,0.022 -0.167,0.034l-1.79,-1.022c0.196,-0.149 0.331,-0.373 0.331,-0.638c0,-0.449 -0.364,-0.813 -0.813,-0.813c-0.417,0 -0.748,0.318 -0.795,0.721l-8.176,-4.67c0.006,-0.04 0.024,-0.075 0.024,-0.117c0,-0.449 -0.365,-0.813 -0.813,-0.813c-0.195,0 -0.366,0.077 -0.505,0.191l-1.106,-0.631l5.765,-3.274Zm32.352,12.218l-19.058,10.889l-19.058,-10.889l6.207,-3.525l12.852,7.342l12.85,-7.342l6.207,3.525Z" style="fill:url(#_Linear14);fill-rule:nonzero;"/></g></g><defs><linearGradient id="_Linear1" x1="0" y1="0" x2="1" y2="0" gradientUnits="userSpaceOnUse" gradientTransform="matrix(44.6895,0,0,43.3452,0,21.6726)"><stop offset="0" style="stop-color:#2ee38f;stop-opacity:1"/><stop offset="1" style="stop-color:#2e4db5;stop-opacity:1"/></linearGradient><linearGradient id="_Linear2" x1="0" y1="0" x2="1" y2="0" gradientUnits="userSpaceOnUse" gradientTransform="matrix(44.6895,0,0,43.3452,0,21.6726)"><stop offset="0" style="stop-color:#2ee38f;stop-opacity:1"/><stop offset="1" style="stop-color:#2e4db5;stop-opacity:1"/></linearGradient><linearGradient id="_Linear3" x1="0" y1="0" x2="1" y2="0" gradientUnits="userSpaceOnUse" gradientTransform="matrix(44.6895,0,0,43.3452,0,21.6726)"><stop offset="0" style="stop-color:#2ee38f;stop-opacity:1"/><stop offset="1" style="stop-color:#2e4db5;stop-opacity:1"/></linearGradient><linearGradient id="_Linear4" x1="0" y1="0" x2="1" y2="0" gradientUnits="userSpaceOnUse" gradientTransform="matrix(44.6895,0,0,43.3452,0,21.6726)"><stop offset="0" style="stop-color:#2ee38f;stop-opacity:1"/><stop offset="1" style="stop-color:#2e4db5;stop-opacity:1"/></linearGradient><linearGradient id="_Linear5" x1="0" y1="0" x2="1" y2="0" gradientUnits="userSpaceOnUse" gradientTransform="matrix(44.6895,0,0,43.3452,0,21.6726)"><stop offset="0" style="stop-color:#2ee38f;stop-opacity:1"/><stop offset="1" style="stop-color:#2e4db5;stop-opacity:1"/></linearGradient><linearGradient id="_Linear6" x1="0" y1="0" x2="1" y2="0" gradientUnits="userSpaceOnUse" gradientTransform="matrix(44.6895,0,0,43.3452,0,21.6726)"><stop offset="0" style="stop-color:#2ee38f;stop-opacity:1"/><stop offset="1" style="stop-color:#2e4db5;stop-opacity:1"/></linearGradient><linearGradient id="_Linear7" x1="0" y1="0" x2="1" y2="0" gradientUnits="userSpaceOnUse" gradientTransform="matrix(44.6895,0,0,43.3452,0,21.6726)"><stop offset="0" style="stop-color:#2ee38f;stop-opacity:1"/><stop offset="1" style="stop-color:#2e4db5;stop-opacity:1"/></linearGradient><linearGradient id="_Linear8" x1="0" y1="0" x2="1" y2="0" gradientUnits="userSpaceOnUse" gradientTransform="matrix(44.6895,0,0,43.3452,0,21.6726)"><stop offset="0" style="stop-color:#2ee38f;stop-opacity:1"/><stop offset="1" style="stop-color:#2e4db5;stop-opacity:1"/></linearGradient><linearGradient id="_Linear9" x1="0" y1="0" x2="1" y2="0" gradientUnits="userSpaceOnUse" gradientTransform="matrix(44.6895,0,0,43.3452,0,21.6726)"><stop offset="0" style="stop-color:#2ee38f;stop-opacity:1"/><stop offset="1" style="stop-color:#2e4db5;stop-opacity:1"/></linearGradient><linearGradient id="_Linear10" x1="0" y1="0" x2="1" y2="0" gradientUnits="userSpaceOnUse" gradientTransform="matrix(44.6895,0,0,43.3452,0,21.6726)"><stop offset="0" style="stop-color:#2ee38f;stop-opacity:1"/><stop offset="1" style="stop-color:#2e4db5;stop-opacity:1"/></linearGradient><linearGradient id="_Linear11" x1="0" y1="0" x2="1" y2="0" gradientUnits="userSpaceOnUse" gradientTransform="matrix(44.6895,0,0,43.3452,0,21.6726)"><stop offset="0" style="stop-color:#2ee38f;stop-opacity:1"/><stop offset="1" style="stop-color:#2e4db5;stop-opacity:1"/></linearGradient><linearGradient id="_Linear12" x1="0" y1="0" x2="1" y2="0" gradientUnits="userSpaceOnUse" gradientTransform="matrix(44.6895,0,0,43.3452,0,21.6726)"><stop offset="0" style="stop-color:#2ee38f;stop-opacity:1"/><stop offset="1" style="stop-color:#2e4db5;stop-opacity:1"/></linearGradient><linearGradient id="_Linear13" x1="0" y1="0" x2="1" y2="0" gradientUnits="userSpaceOnUse" gradientTransform="matrix(44.6895,0,0,43.3452,0,21.6726)"><stop offset="0" style="stop-color:#2ee38f;stop-opacity:1"/><stop offset="1" style="stop-color:#2e4db5;stop-opacity:1"/></linearGradient><linearGradient id="_Linear14" x1="0" y1="0" x2="1" y2="0" gradientUnits="userSpaceOnUse" gradientTransform="matrix(44.6895,0,0,43.3452,0,21.6726)"><stop offset="0" style="stop-color:#2ee38f;stop-opacity:1"/><stop offset="1" style="stop-color:#2e4db5;stop-opacity:1"/></linearGradient></defs></svg>