<?xml version="1.0" encoding="UTF-8" standalone="no"?><!DOCTYPE svg PUBLIC "-//W3C//DTD SVG 1.1//EN" "http://www.w3.org/Graphics/SVG/1.1/DTD/svg11.dtd"><svg width="100%" height="100%" viewBox="0 0 65 92" version="1.1" xmlns="http://www.w3.org/2000/svg" xmlns:xlink="http://www.w3.org/1999/xlink" xml:space="preserve" xmlns:serif="http://www.serif.com/" style="fill-rule:evenodd;clip-rule:evenodd;stroke-linejoin:round;stroke-miterlimit:1.41421;"><g><g id="Layer1"><path d="M30.942,63.038l0,21.708c-1.379,0.465 -2.375,1.77 -2.375,3.304c0,1.922 1.564,3.486 3.486,3.486c1.922,0 3.486,-1.564 3.486,-3.486c0,-1.534 -0.996,-2.838 -2.375,-3.303l0,-21.709l-2.222,0Zm2.375,25.012c0,0.697 -0.567,1.264 -1.264,1.264c-0.697,0 -1.264,-0.567 -1.264,-1.264c0,-0.697 0.567,-1.264 1.264,-1.264c0.697,0 1.264,0.567 1.264,1.264Zm6.971,-15.513l0,5.085c1.379,0.466 2.375,1.77 2.375,3.304c0,1.922 -1.564,3.485 -3.486,3.485c-1.922,0 -3.485,-1.563 -3.485,-3.485c0,-1.534 0.996,-2.839 2.374,-3.304l0,-14.584l2.222,0l0,7.277l6.273,0c0.473,-1.385 1.774,-2.374 3.303,-2.374c1.922,0 3.486,1.563 3.486,3.485c0,1.922 -1.564,3.486 -3.486,3.486c-1.534,0 -2.838,-0.996 -3.303,-2.375l-6.273,0Zm-22.743,0c-0.465,1.379 -1.769,2.375 -3.303,2.375c-1.922,0 -3.486,-1.564 -3.486,-3.486c0,-1.922 1.564,-3.486 3.486,-3.486c1.534,0 2.838,0.996 3.303,2.375l6.272,0l0,-7.277l2.222,0l0,14.584c1.379,0.465 2.375,1.77 2.375,3.303c0,1.922 -1.564,3.486 -3.486,3.486c-1.922,0 -3.485,-1.564 -3.485,-3.486c0,-1.533 0.996,-2.838 2.374,-3.303l0,-5.085l-6.272,0Zm8.647,8.388c0,0.327 -0.124,0.625 -0.329,0.85c-0.231,0.254 -0.564,0.414 -0.935,0.414c-0.329,0 -0.63,-0.126 -0.855,-0.334c-0.251,-0.231 -0.409,-0.562 -0.409,-0.93c0,-0.696 0.567,-1.263 1.264,-1.263c0.19,0 0.37,0.042 0.532,0.117c0.432,0.201 0.732,0.64 0.732,1.146Zm14.249,0c0,0.697 -0.567,1.264 -1.264,1.264c-0.697,0 -1.264,-0.567 -1.264,-1.264c0,-0.696 0.567,-1.263 1.264,-1.263c0.697,0 1.264,0.567 1.264,1.263Zm9.423,-10.763c0.697,0 1.264,0.567 1.264,1.264c0,0.697 -0.567,1.264 -1.264,1.264c-0.697,0 -1.264,-0.567 -1.264,-1.264c0,-0.697 0.567,-1.264 1.264,-1.264Zm-35.622,2.528c-0.697,0 -1.264,-0.567 -1.264,-1.264c0,-0.697 0.567,-1.264 1.264,-1.264c0.697,0 1.264,0.567 1.264,1.264c0,0.697 -0.567,1.264 -1.264,1.264Z" style="fill:url(#_Linear1);"/></g><g><path d="M40.6,41.669c0,-0.59 -0.478,-1.069 -1.068,-1.069c-0.59,0 -1.068,0.479 -1.068,1.069l0,2.137c0,0.589 0.478,1.068 1.068,1.068c0.59,0 1.068,-0.479 1.068,-1.068l0,-2.137Z" style="fill:url(#_Linear2);fill-rule:nonzero;"/><path d="M39.532,53.421c-0.59,0 -1.069,0.479 -1.069,1.069l0,4.273c0,0.59 0.479,1.069 1.069,1.069c0.589,0 1.068,-0.479 1.068,-1.069l0,-4.273c0,-0.59 -0.478,-1.069 -1.068,-1.069Z" style="fill:url(#_Linear3);fill-rule:nonzero;"/><path d="M44.874,28.848c0,-0.59 -0.479,-1.069 -1.068,-1.069c-0.59,0 -1.069,0.479 -1.069,1.069l0,2.136c0,0.59 0.479,1.069 1.069,1.069c0.589,0 1.068,-0.479 1.068,-1.069l0,-2.136Z" style="fill:url(#_Linear4);fill-rule:nonzero;"/><path d="M40.6,35.258c0,-0.59 -0.478,-1.068 -1.068,-1.068c-0.59,0 -1.068,0.478 -1.068,1.068l0,2.137c0,0.59 0.478,1.068 1.068,1.068c0.59,0 1.068,-0.478 1.068,-1.068l0,-2.137Z" style="fill:url(#_Linear5);fill-rule:nonzero;"/><path d="M40.6,48.079c0,-0.589 -0.478,-1.068 -1.068,-1.068c-0.59,0 -1.069,0.479 -1.069,1.068l0,2.137c0,0.59 0.479,1.069 1.069,1.069c0.589,0 1.068,-0.479 1.068,-1.069l0,-2.137l0,0Z" style="fill:url(#_Linear6);fill-rule:nonzero;"/><path d="M44.874,35.258c0,-0.59 -0.479,-1.068 -1.068,-1.068c-0.59,0 -1.069,0.478 -1.069,1.068l0,2.137c0,0.59 0.479,1.068 1.069,1.068c0.589,0 1.068,-0.478 1.068,-1.068l0,-2.137Z" style="fill:url(#_Linear7);fill-rule:nonzero;"/><path d="M36.326,28.848c0,-0.59 -0.478,-1.069 -1.068,-1.069c-0.59,0 -1.068,0.479 -1.068,1.069l0,2.136c0,0.59 0.478,1.069 1.068,1.069c0.59,0 1.068,-0.479 1.068,-1.069l0,-2.136Z" style="fill:url(#_Linear8);fill-rule:nonzero;"/><path d="M40.6,28.848c0,-0.59 -0.478,-1.069 -1.068,-1.069c-0.59,0 -1.068,0.479 -1.068,1.069l0,2.136c0,0.59 0.478,1.069 1.068,1.069c0.59,0 1.068,-0.479 1.068,-1.069l0,-2.136Z" style="fill:url(#_Linear9);fill-rule:nonzero;"/><path d="M44.874,18.163l0,-2.137c0,-0.589 -0.479,-1.068 -1.068,-1.068c-0.59,0 -1.069,0.479 -1.069,1.068l0,2.137c0,0.59 0.479,1.069 1.069,1.069c0.589,0 1.068,-0.479 1.068,-1.069Z" style="fill:url(#_Linear10);fill-rule:nonzero;"/><path d="M36.326,35.258c0,-0.59 -0.478,-1.068 -1.068,-1.068c-0.59,0 -1.068,0.478 -1.068,1.068l0,2.137c0,0.59 0.478,1.068 1.068,1.068c0.59,0 1.068,-0.478 1.068,-1.068l0,-2.137Z" style="fill:url(#_Linear11);fill-rule:nonzero;"/><path d="M49.148,16.026c0,-0.589 -0.479,-1.068 -1.069,-1.068c-0.589,0 -1.068,0.479 -1.068,1.068l0,2.137c0,0.59 0.479,1.069 1.068,1.069c0.59,0 1.069,-0.479 1.069,-1.069l0,-2.137Z" style="fill:url(#_Linear12);fill-rule:nonzero;"/><path d="M35.258,40.6c-0.59,0 -1.068,0.479 -1.068,1.069l0,2.137c0,0.589 0.478,1.068 1.068,1.068c0.59,0 1.068,-0.479 1.068,-1.068l0,-2.137c0,-0.59 -0.478,-1.069 -1.068,-1.069Z" style="fill:url(#_Linear13);fill-rule:nonzero;"/><path d="M53.421,48.079c0,-0.589 -0.478,-1.068 -1.068,-1.068c-0.59,0 -1.068,0.479 -1.068,1.068l0,2.137c0,0.59 0.478,1.069 1.068,1.069c0.59,0 1.068,-0.479 1.068,-1.069l0,-2.137l0,0Z" style="fill:url(#_Linear14);fill-rule:nonzero;"/><path d="M52.353,53.421c-0.59,0 -1.068,0.479 -1.068,1.069l0,4.273c0,0.59 0.478,1.069 1.068,1.069c0.59,0 1.068,-0.479 1.068,-1.069l0,-4.273c0,-0.59 -0.478,-1.069 -1.068,-1.069Z" style="fill:url(#_Linear15);fill-rule:nonzero;"/><path d="M56.627,40.6c-0.59,0 -1.069,0.479 -1.069,1.069l0,2.137c0,0.589 0.479,1.068 1.069,1.068c0.589,0 1.068,-0.479 1.068,-1.068l0,-2.137c0,-0.59 -0.479,-1.069 -1.068,-1.069Z" style="fill:url(#_Linear16);fill-rule:nonzero;"/><path d="M39.532,19.232c0.589,0 1.068,-0.479 1.068,-1.069l0,-4.507l10.685,-2.672l0,17.864c0,0.445 0.276,0.844 0.693,1.001l7.854,2.944l0,11.013c0,0.589 0.479,1.068 1.068,1.068c0.59,0 1.069,-0.479 1.069,-1.068l0,-11.753c0,-0.446 -0.277,-0.844 -0.694,-1.001l-7.854,-2.945l0,-20.628c0,-0.59 -0.478,-1.068 -1.068,-1.068c-0.59,0 -1.068,0.478 -1.068,1.068l0,1.302l-12.013,3.004c-0.475,0.118 -0.809,0.546 -0.809,1.036l0,5.342c0,0.59 0.479,1.069 1.069,1.069Z" style="fill:url(#_Linear17);fill-rule:nonzero;"/><path d="M57.695,35.258c0,-0.59 -0.479,-1.068 -1.068,-1.068c-0.59,0 -1.069,0.478 -1.069,1.068l0,2.137c0,0.59 0.479,1.068 1.069,1.068c0.589,0 1.068,-0.478 1.068,-1.068l0,-2.137Z" style="fill:url(#_Linear18);fill-rule:nonzero;"/><path d="M53.421,35.258c0,-0.59 -0.478,-1.068 -1.068,-1.068c-0.59,0 -1.068,0.478 -1.068,1.068l0,2.137c0,0.59 0.478,1.068 1.068,1.068c0.59,0 1.068,-0.478 1.068,-1.068l0,-2.137Z" style="fill:url(#_Linear19);fill-rule:nonzero;"/><path d="M44.874,48.079c0,-0.589 -0.479,-1.068 -1.068,-1.068c-0.59,0 -1.069,0.479 -1.069,1.068l0,2.137c0,0.59 0.479,1.069 1.069,1.069c0.589,0 1.068,-0.479 1.068,-1.069l0,-2.137Z" style="fill:url(#_Linear20);fill-rule:nonzero;"/><path d="M53.421,41.669c0,-0.59 -0.478,-1.069 -1.068,-1.069c-0.59,0 -1.068,0.479 -1.068,1.069l0,2.137c0,0.589 0.478,1.068 1.068,1.068c0.59,0 1.068,-0.479 1.068,-1.068l0,-2.137Z" style="fill:url(#_Linear21);fill-rule:nonzero;"/><path d="M43.806,53.421c-0.59,0 -1.069,0.479 -1.069,1.069l0,4.273c0,0.59 0.479,1.069 1.069,1.069c0.589,0 1.068,-0.479 1.068,-1.069l0,-4.273c0,-0.59 -0.479,-1.069 -1.068,-1.069Z" style="fill:url(#_Linear22);fill-rule:nonzero;"/><path d="M44.874,41.669c0,-0.59 -0.479,-1.069 -1.068,-1.069c-0.59,0 -1.069,0.479 -1.069,1.069l0,2.137c0,0.589 0.479,1.068 1.069,1.068c0.589,0 1.068,-0.479 1.068,-1.068l0,-2.137Z" style="fill:url(#_Linear23);fill-rule:nonzero;"/><path d="M48.079,59.832c0.59,0 1.069,-0.479 1.069,-1.068l0,-34.19c0,-0.491 -0.335,-0.918 -0.809,-1.036l-17.095,-4.274c-0.317,-0.08 -0.658,-0.008 -0.917,0.194c-0.259,0.202 -0.411,0.513 -0.411,0.842l0,23.505c0,0.59 0.479,1.069 1.068,1.069c0.59,0 1.069,-0.479 1.069,-1.069l0,-22.136l14.958,3.739l0,33.356c0,0.589 0.479,1.068 1.068,1.068Z" style="fill:url(#_Linear24);fill-rule:nonzero;"/><path d="M23.505,22.437c0,-0.59 -0.478,-1.068 -1.068,-1.068c-0.59,0 -1.068,0.478 -1.068,1.068l0,2.137c0,0.59 0.478,1.068 1.068,1.068c0.59,0 1.068,-0.478 1.068,-1.068l0,-2.137Z" style="fill:url(#_Linear25);fill-rule:nonzero;"/><path d="M23.505,16.026c0,-0.589 -0.478,-1.068 -1.068,-1.068c-0.59,0 -1.068,0.479 -1.068,1.068l0,2.137c0,0.59 0.478,1.069 1.068,1.069c0.59,0 1.068,-0.479 1.068,-1.069l0,-2.137Z" style="fill:url(#_Linear26);fill-rule:nonzero;"/><path d="M14.958,48.079c0,-0.589 -0.479,-1.068 -1.068,-1.068c-0.59,0 -1.069,0.479 -1.069,1.068l0,2.137c0,0.59 0.479,1.069 1.069,1.069c0.589,0 1.068,-0.479 1.068,-1.069l0,-2.137l0,0Z" style="fill:url(#_Linear27);fill-rule:nonzero;"/><path d="M5.342,38.463c0.59,0 1.069,-0.478 1.069,-1.068l0,-5.342l10.684,0l0,26.71c0,0.59 0.478,1.069 1.068,1.069c0.59,0 1.069,-0.479 1.069,-1.069l0,-27.779c0,-0.589 -0.479,-1.068 -1.069,-1.068l-12.821,0c-0.59,0 -1.068,0.479 -1.068,1.068l0,6.411c0,0.59 0.478,1.068 1.068,1.068Z" style="fill:url(#_Linear28);fill-rule:nonzero;"/><path d="M17.095,22.437l0,2.137c0,0.59 0.478,1.068 1.068,1.068c0.59,0 1.069,-0.478 1.069,-1.068l0,-2.137c0,-0.59 -0.479,-1.068 -1.069,-1.068c-0.59,0 -1.068,0.478 -1.068,1.068Z" style="fill:url(#_Linear29);fill-rule:nonzero;"/><path d="M23.505,9.616c0,-0.59 -0.478,-1.069 -1.068,-1.069c-0.59,0 -1.068,0.479 -1.068,1.069l0,2.137c0,0.589 0.478,1.068 1.068,1.068c0.59,0 1.068,-0.479 1.068,-1.068l0,-2.137Z" style="fill:url(#_Linear30);fill-rule:nonzero;"/><path d="M13.89,53.421c-0.59,0 -1.069,0.479 -1.069,1.069l0,4.273c0,0.59 0.479,1.069 1.069,1.069c0.589,0 1.068,-0.479 1.068,-1.069l0,-4.273c0,-0.59 -0.479,-1.069 -1.068,-1.069Z" style="fill:url(#_Linear31);fill-rule:nonzero;"/><path d="M63.037,61.969l-2.137,0l0,-6.563c1.838,-0.477 3.206,-2.136 3.206,-4.122c0,-2.357 -1.917,-4.273 -4.274,-4.273c-2.357,0 -4.274,1.917 -4.274,4.273c0,1.986 1.368,3.645 3.206,4.122l0,6.563l-26.711,0l0,-4.382c2.435,-0.497 4.273,-2.654 4.273,-5.234c0,-2.946 -2.396,-5.342 -5.342,-5.342c-2.945,0 -5.342,2.396 -5.342,5.342c0,2.58 1.839,4.737 4.274,5.234l0,4.382l-23.505,0l0,-10.792c2.434,-0.497 4.273,-2.654 4.273,-5.235c0,-2.945 -2.396,-5.342 -5.342,-5.342c-2.946,0 -5.342,2.397 -5.342,5.342c0,2.581 1.839,4.738 4.274,5.235l0,10.792l-3.206,0c-0.589,0 -1.068,0.478 -1.068,1.068c0,0.59 0.479,1.069 1.068,1.069l61.969,0c0.59,0 1.069,-0.479 1.069,-1.069c0,-0.589 -0.479,-1.068 -1.069,-1.068Zm-60.9,-16.027c0,-1.767 1.438,-3.205 3.205,-3.205c1.767,0 3.205,1.438 3.205,3.205c0,1.767 -1.438,3.206 -3.205,3.206c-1.767,0 -3.205,-1.439 -3.205,-3.206Zm25.642,6.411c0,-1.767 1.438,-3.205 3.205,-3.205c1.768,0 3.206,1.438 3.206,3.205c0,1.767 -1.438,3.205 -3.206,3.205c-1.767,0 -3.205,-1.438 -3.205,-3.205Zm29.916,-1.068c0,-1.179 0.958,-2.137 2.137,-2.137c1.179,0 2.137,0.958 2.137,2.137c0,1.178 -0.958,2.136 -2.137,2.136c-1.179,0 -2.137,-0.958 -2.137,-2.136Z" style="fill:url(#_Linear32);fill-rule:nonzero;"/><path d="M8.547,54.49l0,4.273c0,0.59 0.479,1.069 1.069,1.069c0.59,0 1.068,-0.479 1.068,-1.069l0,-4.273c0,-0.59 -0.478,-1.069 -1.068,-1.069c-0.59,0 -1.069,0.479 -1.069,1.069Z" style="fill:url(#_Linear33);fill-rule:nonzero;"/><path d="M14.958,35.258c0,-0.59 -0.479,-1.068 -1.068,-1.068c-0.59,0 -1.069,0.478 -1.069,1.068l0,2.137c0,0.59 0.479,1.068 1.069,1.068c0.589,0 1.068,-0.478 1.068,-1.068l0,-2.137Z" style="fill:url(#_Linear34);fill-rule:nonzero;"/><path d="M14.958,41.669c0,-0.59 -0.479,-1.069 -1.068,-1.069c-0.59,0 -1.069,0.479 -1.069,1.069l0,2.137c0,0.589 0.479,1.068 1.069,1.068c0.589,0 1.068,-0.479 1.068,-1.068l0,-2.137Z" style="fill:url(#_Linear35);fill-rule:nonzero;"/><path d="M8.547,35.258l0,2.137c0,0.59 0.479,1.068 1.069,1.068c0.59,0 1.068,-0.478 1.068,-1.068l0,-2.137c0,-0.59 -0.478,-1.068 -1.068,-1.068c-0.59,0 -1.069,0.478 -1.069,1.068Z" style="fill:url(#_Linear36);fill-rule:nonzero;"/><path d="M23.505,41.669c0,-0.59 -0.478,-1.069 -1.068,-1.069c-0.59,0 -1.068,0.479 -1.068,1.069l0,2.137c0,0.589 0.478,1.068 1.068,1.068c0.59,0 1.068,-0.479 1.068,-1.068l0,-2.137Z" style="fill:url(#_Linear37);fill-rule:nonzero;"/><path d="M27.779,28.848c0,-0.59 -0.479,-1.069 -1.068,-1.069c-0.59,0 -1.069,0.479 -1.069,1.069l0,2.136c0,0.59 0.479,1.069 1.069,1.069c0.589,0 1.068,-0.479 1.068,-1.069l0,-2.136Z" style="fill:url(#_Linear38);fill-rule:nonzero;"/><path d="M27.779,22.437c0,-0.59 -0.479,-1.068 -1.068,-1.068c-0.59,0 -1.069,0.478 -1.069,1.068l0,2.137c0,0.59 0.479,1.068 1.069,1.068c0.589,0 1.068,-0.478 1.068,-1.068l0,-2.137Z" style="fill:url(#_Linear39);fill-rule:nonzero;"/><path d="M27.779,35.258c0,-0.59 -0.479,-1.068 -1.068,-1.068c-0.59,0 -1.069,0.478 -1.069,1.068l0,2.137c0,0.59 0.479,1.068 1.069,1.068c0.589,0 1.068,-0.478 1.068,-1.068l0,-2.137Z" style="fill:url(#_Linear40);fill-rule:nonzero;"/><path d="M26.711,40.6c-0.59,0 -1.069,0.479 -1.069,1.069l0,2.137c0,0.589 0.479,1.068 1.069,1.068c0.589,0 1.068,-0.479 1.068,-1.068l0,-2.137c0,-0.59 -0.479,-1.069 -1.068,-1.069Z" style="fill:url(#_Linear41);fill-rule:nonzero;"/><path d="M27.779,16.026c0,-0.589 -0.479,-1.068 -1.068,-1.068c-0.59,0 -1.069,0.479 -1.069,1.068l0,2.137c0,0.59 0.479,1.069 1.069,1.069c0.589,0 1.068,-0.479 1.068,-1.069l0,-2.137Z" style="fill:url(#_Linear42);fill-rule:nonzero;"/><path d="M23.505,48.079c0,-0.589 -0.478,-1.068 -1.068,-1.068c-0.59,0 -1.068,0.479 -1.068,1.068l0,2.137c0,0.59 0.478,1.069 1.068,1.069c0.59,0 1.068,-0.479 1.068,-1.069l0,-2.137Z" style="fill:url(#_Linear43);fill-rule:nonzero;"/><path d="M13.89,27.779c0.589,0 1.068,-0.479 1.068,-1.068l0,-7.887l3.683,-1.841c0.362,-0.182 0.591,-0.552 0.591,-0.957l0,-8.955l5.342,-2.671l5.342,2.671l0,8.955c0,0.59 0.479,1.069 1.068,1.069c0.59,0 1.069,-0.479 1.069,-1.069l0,-9.615c0,-0.405 -0.229,-0.775 -0.591,-0.957l-5.82,-2.909l0,-1.477c0,-0.589 -0.478,-1.068 -1.068,-1.068c-0.59,0 -1.069,0.479 -1.069,1.068l0,1.477l-5.819,2.909c-0.362,0.182 -0.591,0.552 -0.591,0.956l0,8.956l-3.683,1.841c-0.362,0.182 -0.591,0.551 -0.591,0.956l0,8.548c0,0.589 0.479,1.068 1.069,1.068Z" style="fill:url(#_Linear44);fill-rule:nonzero;"/><path d="M23.505,35.258c0,-0.59 -0.478,-1.068 -1.068,-1.068c-0.59,0 -1.068,0.478 -1.068,1.068l0,2.137c0,0.59 0.478,1.068 1.068,1.068c0.59,0 1.068,-0.478 1.068,-1.068l0,-2.137Z" style="fill:url(#_Linear45);fill-rule:nonzero;"/><path d="M22.437,53.421c-0.59,0 -1.068,0.479 -1.068,1.069l0,4.273c0,0.59 0.478,1.069 1.068,1.069c0.59,0 1.068,-0.479 1.068,-1.069l0,-4.273c0,-0.59 -0.478,-1.069 -1.068,-1.069Z" style="fill:url(#_Linear46);fill-rule:nonzero;"/><path d="M27.779,9.616c0,-0.59 -0.479,-1.069 -1.068,-1.069c-0.59,0 -1.069,0.479 -1.069,1.069l0,2.137c0,0.589 0.479,1.068 1.069,1.068c0.589,0 1.068,-0.479 1.068,-1.068l0,-2.137Z" style="fill:url(#_Linear47);fill-rule:nonzero;"/><path d="M23.505,28.848c0,-0.59 -0.478,-1.069 -1.068,-1.069c-0.59,0 -1.068,0.479 -1.068,1.069l0,2.136c0,0.59 0.478,1.069 1.068,1.069c0.59,0 1.068,-0.479 1.068,-1.069l0,-2.136Z" style="fill:url(#_Linear48);fill-rule:nonzero;"/></g></g><defs><linearGradient id="_Linear1" x1="0" y1="0" x2="1" y2="0" gradientUnits="userSpaceOnUse" gradientTransform="matrix(39.5655,0,0,56.495,15.8824,87.0909)"><stop offset="0" style="stop-color:#2ee38f;stop-opacity:1"/><stop offset="1" style="stop-color:#2e4db5;stop-opacity:1"/></linearGradient><linearGradient id="_Linear2" x1="0" y1="0" x2="1" y2="0" gradientUnits="userSpaceOnUse" gradientTransform="matrix(33.4435,0,0,47.7535,18.3845,60.3487)"><stop offset="0" style="stop-color:#2ee38f;stop-opacity:1"/><stop offset="1" style="stop-color:#2e4db5;stop-opacity:1"/></linearGradient><linearGradient id="_Linear3" x1="0" y1="0" x2="1" y2="0" gradientUnits="userSpaceOnUse" gradientTransform="matrix(33.4435,0,0,47.7535,18.3845,60.3487)"><stop offset="0" style="stop-color:#2ee38f;stop-opacity:1"/><stop offset="1" style="stop-color:#2e4db5;stop-opacity:1"/></linearGradient><linearGradient id="_Linear4" x1="0" y1="0" x2="1" y2="0" gradientUnits="userSpaceOnUse" gradientTransform="matrix(33.4435,0,0,47.7535,18.3845,60.3487)"><stop offset="0" style="stop-color:#2ee38f;stop-opacity:1"/><stop offset="1" style="stop-color:#2e4db5;stop-opacity:1"/></linearGradient><linearGradient id="_Linear5" x1="0" y1="0" x2="1" y2="0" gradientUnits="userSpaceOnUse" gradientTransform="matrix(33.4435,0,0,47.7535,18.3845,60.3487)"><stop offset="0" style="stop-color:#2ee38f;stop-opacity:1"/><stop offset="1" style="stop-color:#2e4db5;stop-opacity:1"/></linearGradient><linearGradient id="_Linear6" x1="0" y1="0" x2="1" y2="0" gradientUnits="userSpaceOnUse" gradientTransform="matrix(33.4435,0,0,47.7535,18.3845,60.3487)"><stop offset="0" style="stop-color:#2ee38f;stop-opacity:1"/><stop offset="1" style="stop-color:#2e4db5;stop-opacity:1"/></linearGradient><linearGradient id="_Linear7" x1="0" y1="0" x2="1" y2="0" gradientUnits="userSpaceOnUse" gradientTransform="matrix(33.4435,0,0,47.7535,18.3845,60.3487)"><stop offset="0" style="stop-color:#2ee38f;stop-opacity:1"/><stop offset="1" style="stop-color:#2e4db5;stop-opacity:1"/></linearGradient><linearGradient id="_Linear8" x1="0" y1="0" x2="1" y2="0" gradientUnits="userSpaceOnUse" gradientTransform="matrix(33.4435,0,0,47.7535,18.3845,60.3487)"><stop offset="0" style="stop-color:#2ee38f;stop-opacity:1"/><stop offset="1" style="stop-color:#2e4db5;stop-opacity:1"/></linearGradient><linearGradient id="_Linear9" x1="0" y1="0" x2="1" y2="0" gradientUnits="userSpaceOnUse" gradientTransform="matrix(33.4435,0,0,47.7535,18.3845,60.3487)"><stop offset="0" style="stop-color:#2ee38f;stop-opacity:1"/><stop offset="1" style="stop-color:#2e4db5;stop-opacity:1"/></linearGradient><linearGradient id="_Linear10" x1="0" y1="0" x2="1" y2="0" gradientUnits="userSpaceOnUse" gradientTransform="matrix(33.4435,0,0,47.7535,18.3845,60.3487)"><stop offset="0" style="stop-color:#2ee38f;stop-opacity:1"/><stop offset="1" style="stop-color:#2e4db5;stop-opacity:1"/></linearGradient><linearGradient id="_Linear11" x1="0" y1="0" x2="1" y2="0" gradientUnits="userSpaceOnUse" gradientTransform="matrix(33.4435,0,0,47.7535,18.3845,60.3487)"><stop offset="0" style="stop-color:#2ee38f;stop-opacity:1"/><stop offset="1" style="stop-color:#2e4db5;stop-opacity:1"/></linearGradient><linearGradient id="_Linear12" x1="0" y1="0" x2="1" y2="0" gradientUnits="userSpaceOnUse" gradientTransform="matrix(33.4435,0,0,47.7535,18.3845,60.3487)"><stop offset="0" style="stop-color:#2ee38f;stop-opacity:1"/><stop offset="1" style="stop-color:#2e4db5;stop-opacity:1"/></linearGradient><linearGradient id="_Linear13" x1="0" y1="0" x2="1" y2="0" gradientUnits="userSpaceOnUse" gradientTransform="matrix(33.4435,0,0,47.7535,18.3845,60.3487)"><stop offset="0" style="stop-color:#2ee38f;stop-opacity:1"/><stop offset="1" style="stop-color:#2e4db5;stop-opacity:1"/></linearGradient><linearGradient id="_Linear14" x1="0" y1="0" x2="1" y2="0" gradientUnits="userSpaceOnUse" gradientTransform="matrix(33.4435,0,0,47.7535,18.3845,60.3487)"><stop offset="0" style="stop-color:#2ee38f;stop-opacity:1"/><stop offset="1" style="stop-color:#2e4db5;stop-opacity:1"/></linearGradient><linearGradient id="_Linear15" x1="0" y1="0" x2="1" y2="0" gradientUnits="userSpaceOnUse" gradientTransform="matrix(33.4435,0,0,47.7535,18.3845,60.3487)"><stop offset="0" style="stop-color:#2ee38f;stop-opacity:1"/><stop offset="1" style="stop-color:#2e4db5;stop-opacity:1"/></linearGradient><linearGradient id="_Linear16" x1="0" y1="0" x2="1" y2="0" gradientUnits="userSpaceOnUse" gradientTransform="matrix(33.4435,0,0,47.7535,18.3845,60.3487)"><stop offset="0" style="stop-color:#2ee38f;stop-opacity:1"/><stop offset="1" style="stop-color:#2e4db5;stop-opacity:1"/></linearGradient><linearGradient id="_Linear17" x1="0" y1="0" x2="1" y2="0" gradientUnits="userSpaceOnUse" gradientTransform="matrix(33.4435,0,0,47.7535,18.3845,60.3487)"><stop offset="0" style="stop-color:#2ee38f;stop-opacity:1"/><stop offset="1" style="stop-color:#2e4db5;stop-opacity:1"/></linearGradient><linearGradient id="_Linear18" x1="0" y1="0" x2="1" y2="0" gradientUnits="userSpaceOnUse" gradientTransform="matrix(33.4435,0,0,47.7535,18.3845,60.3487)"><stop offset="0" style="stop-color:#2ee38f;stop-opacity:1"/><stop offset="1" style="stop-color:#2e4db5;stop-opacity:1"/></linearGradient><linearGradient id="_Linear19" x1="0" y1="0" x2="1" y2="0" gradientUnits="userSpaceOnUse" gradientTransform="matrix(33.4435,0,0,47.7535,18.3845,60.3487)"><stop offset="0" style="stop-color:#2ee38f;stop-opacity:1"/><stop offset="1" style="stop-color:#2e4db5;stop-opacity:1"/></linearGradient><linearGradient id="_Linear20" x1="0" y1="0" x2="1" y2="0" gradientUnits="userSpaceOnUse" gradientTransform="matrix(33.4435,0,0,47.7535,18.3845,60.3487)"><stop offset="0" style="stop-color:#2ee38f;stop-opacity:1"/><stop offset="1" style="stop-color:#2e4db5;stop-opacity:1"/></linearGradient><linearGradient id="_Linear21" x1="0" y1="0" x2="1" y2="0" gradientUnits="userSpaceOnUse" gradientTransform="matrix(33.4435,0,0,47.7535,18.3845,60.3487)"><stop offset="0" style="stop-color:#2ee38f;stop-opacity:1"/><stop offset="1" style="stop-color:#2e4db5;stop-opacity:1"/></linearGradient><linearGradient id="_Linear22" x1="0" y1="0" x2="1" y2="0" gradientUnits="userSpaceOnUse" gradientTransform="matrix(33.4435,0,0,47.7535,18.3845,60.3487)"><stop offset="0" style="stop-color:#2ee38f;stop-opacity:1"/><stop offset="1" style="stop-color:#2e4db5;stop-opacity:1"/></linearGradient><linearGradient id="_Linear23" x1="0" y1="0" x2="1" y2="0" gradientUnits="userSpaceOnUse" gradientTransform="matrix(33.4435,0,0,47.7535,18.3845,60.3487)"><stop offset="0" style="stop-color:#2ee38f;stop-opacity:1"/><stop offset="1" style="stop-color:#2e4db5;stop-opacity:1"/></linearGradient><linearGradient id="_Linear24" x1="0" y1="0" x2="1" y2="0" gradientUnits="userSpaceOnUse" gradientTransform="matrix(33.4435,0,0,47.7535,18.3845,60.3487)"><stop offset="0" style="stop-color:#2ee38f;stop-opacity:1"/><stop offset="1" style="stop-color:#2e4db5;stop-opacity:1"/></linearGradient><linearGradient id="_Linear25" x1="0" y1="0" x2="1" y2="0" gradientUnits="userSpaceOnUse" gradientTransform="matrix(33.4435,0,0,47.7535,18.3845,60.3487)"><stop offset="0" style="stop-color:#2ee38f;stop-opacity:1"/><stop offset="1" style="stop-color:#2e4db5;stop-opacity:1"/></linearGradient><linearGradient id="_Linear26" x1="0" y1="0" x2="1" y2="0" gradientUnits="userSpaceOnUse" gradientTransform="matrix(33.4435,0,0,47.7535,18.3845,60.3487)"><stop offset="0" style="stop-color:#2ee38f;stop-opacity:1"/><stop offset="1" style="stop-color:#2e4db5;stop-opacity:1"/></linearGradient><linearGradient id="_Linear27" x1="0" y1="0" x2="1" y2="0" gradientUnits="userSpaceOnUse" gradientTransform="matrix(33.4435,0,0,47.7535,18.3845,60.3487)"><stop offset="0" style="stop-color:#2ee38f;stop-opacity:1"/><stop offset="1" style="stop-color:#2e4db5;stop-opacity:1"/></linearGradient><linearGradient id="_Linear28" x1="0" y1="0" x2="1" y2="0" gradientUnits="userSpaceOnUse" gradientTransform="matrix(33.4435,0,0,47.7535,18.3845,60.3487)"><stop offset="0" style="stop-color:#2ee38f;stop-opacity:1"/><stop offset="1" style="stop-color:#2e4db5;stop-opacity:1"/></linearGradient><linearGradient id="_Linear29" x1="0" y1="0" x2="1" y2="0" gradientUnits="userSpaceOnUse" gradientTransform="matrix(33.4435,0,0,47.7535,18.3845,60.3487)"><stop offset="0" style="stop-color:#2ee38f;stop-opacity:1"/><stop offset="1" style="stop-color:#2e4db5;stop-opacity:1"/></linearGradient><linearGradient id="_Linear30" x1="0" y1="0" x2="1" y2="0" gradientUnits="userSpaceOnUse" gradientTransform="matrix(33.4435,0,0,47.7535,18.3845,60.3487)"><stop offset="0" style="stop-color:#2ee38f;stop-opacity:1"/><stop offset="1" style="stop-color:#2e4db5;stop-opacity:1"/></linearGradient><linearGradient id="_Linear31" x1="0" y1="0" x2="1" y2="0" gradientUnits="userSpaceOnUse" gradientTransform="matrix(33.4435,0,0,47.7535,18.3845,60.3487)"><stop offset="0" style="stop-color:#2ee38f;stop-opacity:1"/><stop offset="1" style="stop-color:#2e4db5;stop-opacity:1"/></linearGradient><linearGradient id="_Linear32" x1="0" y1="0" x2="1" y2="0" gradientUnits="userSpaceOnUse" gradientTransform="matrix(33.4435,0,0,47.7535,18.3845,60.3487)"><stop offset="0" style="stop-color:#2ee38f;stop-opacity:1"/><stop offset="1" style="stop-color:#2e4db5;stop-opacity:1"/></linearGradient><linearGradient id="_Linear33" x1="0" y1="0" x2="1" y2="0" gradientUnits="userSpaceOnUse" gradientTransform="matrix(33.4435,0,0,47.7535,18.3845,60.3487)"><stop offset="0" style="stop-color:#2ee38f;stop-opacity:1"/><stop offset="1" style="stop-color:#2e4db5;stop-opacity:1"/></linearGradient><linearGradient id="_Linear34" x1="0" y1="0" x2="1" y2="0" gradientUnits="userSpaceOnUse" gradientTransform="matrix(33.4435,0,0,47.7535,18.3845,60.3487)"><stop offset="0" style="stop-color:#2ee38f;stop-opacity:1"/><stop offset="1" style="stop-color:#2e4db5;stop-opacity:1"/></linearGradient><linearGradient id="_Linear35" x1="0" y1="0" x2="1" y2="0" gradientUnits="userSpaceOnUse" gradientTransform="matrix(33.4435,0,0,47.7535,18.3845,60.3487)"><stop offset="0" style="stop-color:#2ee38f;stop-opacity:1"/><stop offset="1" style="stop-color:#2e4db5;stop-opacity:1"/></linearGradient><linearGradient id="_Linear36" x1="0" y1="0" x2="1" y2="0" gradientUnits="userSpaceOnUse" gradientTransform="matrix(33.4435,0,0,47.7535,18.3845,60.3487)"><stop offset="0" style="stop-color:#2ee38f;stop-opacity:1"/><stop offset="1" style="stop-color:#2e4db5;stop-opacity:1"/></linearGradient><linearGradient id="_Linear37" x1="0" y1="0" x2="1" y2="0" gradientUnits="userSpaceOnUse" gradientTransform="matrix(33.4435,0,0,47.7535,18.3845,60.3487)"><stop offset="0" style="stop-color:#2ee38f;stop-opacity:1"/><stop offset="1" style="stop-color:#2e4db5;stop-opacity:1"/></linearGradient><linearGradient id="_Linear38" x1="0" y1="0" x2="1" y2="0" gradientUnits="userSpaceOnUse" gradientTransform="matrix(33.4435,0,0,47.7535,18.3845,60.3487)"><stop offset="0" style="stop-color:#2ee38f;stop-opacity:1"/><stop offset="1" style="stop-color:#2e4db5;stop-opacity:1"/></linearGradient><linearGradient id="_Linear39" x1="0" y1="0" x2="1" y2="0" gradientUnits="userSpaceOnUse" gradientTransform="matrix(33.4435,0,0,47.7535,18.3845,60.3487)"><stop offset="0" style="stop-color:#2ee38f;stop-opacity:1"/><stop offset="1" style="stop-color:#2e4db5;stop-opacity:1"/></linearGradient><linearGradient id="_Linear40" x1="0" y1="0" x2="1" y2="0" gradientUnits="userSpaceOnUse" gradientTransform="matrix(33.4435,0,0,47.7535,18.3845,60.3487)"><stop offset="0" style="stop-color:#2ee38f;stop-opacity:1"/><stop offset="1" style="stop-color:#2e4db5;stop-opacity:1"/></linearGradient><linearGradient id="_Linear41" x1="0" y1="0" x2="1" y2="0" gradientUnits="userSpaceOnUse" gradientTransform="matrix(33.4435,0,0,47.7535,18.3845,60.3487)"><stop offset="0" style="stop-color:#2ee38f;stop-opacity:1"/><stop offset="1" style="stop-color:#2e4db5;stop-opacity:1"/></linearGradient><linearGradient id="_Linear42" x1="0" y1="0" x2="1" y2="0" gradientUnits="userSpaceOnUse" gradientTransform="matrix(33.4435,0,0,47.7535,18.3845,60.3487)"><stop offset="0" style="stop-color:#2ee38f;stop-opacity:1"/><stop offset="1" style="stop-color:#2e4db5;stop-opacity:1"/></linearGradient><linearGradient id="_Linear43" x1="0" y1="0" x2="1" y2="0" gradientUnits="userSpaceOnUse" gradientTransform="matrix(33.4435,0,0,47.7535,18.3845,60.3487)"><stop offset="0" style="stop-color:#2ee38f;stop-opacity:1"/><stop offset="1" style="stop-color:#2e4db5;stop-opacity:1"/></linearGradient><linearGradient id="_Linear44" x1="0" y1="0" x2="1" y2="0" gradientUnits="userSpaceOnUse" gradientTransform="matrix(33.4435,0,0,47.7535,18.3845,60.3487)"><stop offset="0" style="stop-color:#2ee38f;stop-opacity:1"/><stop offset="1" style="stop-color:#2e4db5;stop-opacity:1"/></linearGradient><linearGradient id="_Linear45" x1="0" y1="0" x2="1" y2="0" gradientUnits="userSpaceOnUse" gradientTransform="matrix(33.4435,0,0,47.7535,18.3845,60.3487)"><stop offset="0" style="stop-color:#2ee38f;stop-opacity:1"/><stop offset="1" style="stop-color:#2e4db5;stop-opacity:1"/></linearGradient><linearGradient id="_Linear46" x1="0" y1="0" x2="1" y2="0" gradientUnits="userSpaceOnUse" gradientTransform="matrix(33.4435,0,0,47.7535,18.3845,60.3487)"><stop offset="0" style="stop-color:#2ee38f;stop-opacity:1"/><stop offset="1" style="stop-color:#2e4db5;stop-opacity:1"/></linearGradient><linearGradient id="_Linear47" x1="0" y1="0" x2="1" y2="0" gradientUnits="userSpaceOnUse" gradientTransform="matrix(33.4435,0,0,47.7535,18.3845,60.3487)"><stop offset="0" style="stop-color:#2ee38f;stop-opacity:1"/><stop offset="1" style="stop-color:#2e4db5;stop-opacity:1"/></linearGradient><linearGradient id="_Linear48" x1="0" y1="0" x2="1" y2="0" gradientUnits="userSpaceOnUse" gradientTransform="matrix(33.4435,0,0,47.7535,18.3845,60.3487)"><stop offset="0" style="stop-color:#2ee38f;stop-opacity:1"/><stop offset="1" style="stop-color:#2e4db5;stop-opacity:1"/></linearGradient></defs></svg>