<?xml version="1.0" standalone="no"?>
<!DOCTYPE svg PUBLIC "-//W3C//DTD SVG 20010904//EN"
 "http://www.w3.org/TR/2001/REC-SVG-20010904/DTD/svg10.dtd">
<svg version="1.0" xmlns="http://www.w3.org/2000/svg"
 width="800.000000pt" height="800.000000pt" viewBox="0 0 800.000000 800.000000"
 preserveAspectRatio="xMidYMid meet">
<metadata>
Created by potrace 1.11, written by Peter Selinger 2001-2013
</metadata>
<g transform="translate(0.000000,800.000000) scale(0.100000,-0.100000)"
fill="#000000" stroke="none">
<path d="M2250 7689 c-59 -75 -60 -110 -4 -173 l34 -38 518 4 c580 3 557 0
589 76 13 32 14 42 2 76 -8 22 -27 49 -42 60 -28 21 -39 21 -550 24 l-522 3
-25 -32z"/>
<path d="M3680 7707 c-81 -28 -104 -133 -41 -189 68 -61 197 -41 235 36 17 36
18 43 5 79 -8 22 -25 48 -39 58 -31 23 -114 31 -160 16z"/>
<path d="M2315 7313 c-48 -6 -72 -23 -96 -68 -23 -43 -23 -43 -5 -84 35 -75
37 -76 331 -76 294 0 307 3 339 69 17 36 18 43 5 79 -27 78 -37 81 -306 82
-131 1 -251 0 -268 -2z"/>
<path d="M3166 7309 c-94 -27 -110 -150 -26 -207 90 -61 209 39 167 140 -24
56 -82 84 -141 67z"/>
<path d="M3551 7311 c-106 -19 -133 -150 -44 -208 23 -15 50 -18 164 -18 158
0 183 10 208 81 12 34 11 44 -2 76 -25 59 -52 71 -175 74 -59 1 -127 -1 -151
-5z"/>
<path d="M2303 6910 c-44 -6 -72 -32 -94 -82 -13 -31 -3 -65 32 -107 29 -35
80 -40 394 -37 304 2 317 5 349 69 16 33 17 45 7 76 -17 57 -41 73 -123 81
-90 9 -507 9 -565 0z"/>
<path d="M3198 6911 c-74 -15 -113 -85 -85 -153 28 -66 50 -73 233 -73 186 0
208 8 232 82 11 35 11 46 -2 76 -25 62 -50 70 -205 73 -75 1 -153 -1 -173 -5z"/>
<path d="M3740 6909 c-95 -20 -117 -151 -35 -205 29 -19 95 -21 122 -4 34 22
56 62 56 102 0 31 -7 46 -33 73 -36 37 -59 44 -110 34z"/>
<path d="M2278 6506 c-34 -12 -78 -66 -78 -98 0 -34 28 -86 55 -104 31 -20 85
-23 119 -5 13 7 33 30 45 51 26 47 20 87 -20 128 -33 34 -73 43 -121 28z"/>
<path d="M2725 6510 c-33 -3 -67 -9 -76 -15 -70 -45 -63 -164 13 -196 47 -20
1241 -21 1276 -1 72 41 75 153 5 199 -25 17 -70 18 -593 18 -311 0 -592 -2
-625 -5z"/>
<path d="M2330 6112 c-62 -4 -85 -18 -112 -68 l-23 -44 23 -44 c38 -71 34 -71
401 -71 407 0 409 0 438 44 26 39 30 89 9 130 -28 54 -22 53 -368 55 -178 0
-343 0 -368 -2z"/>
<path d="M3321 6110 c-52 -6 -69 -12 -87 -34 -48 -55 -37 -134 23 -173 25 -16
60 -18 388 -18 404 0 405 0 439 69 17 36 18 43 5 79 -8 22 -27 50 -42 61 -27
20 -40 21 -345 22 -174 1 -346 -2 -381 -6z"/>
<path d="M4334 6104 c-17 -8 -41 -32 -52 -53 -27 -48 -21 -91 19 -130 89 -89
234 7 185 122 -25 61 -96 89 -152 61z"/>
<path d="M4731 6112 c-92 -7 -141 -84 -104 -160 32 -65 42 -67 378 -67 338 0
346 2 379 69 17 36 18 43 5 79 -8 22 -27 50 -42 61 -27 20 -41 21 -300 21
-150 1 -292 -1 -316 -3z"/>
<path d="M6307 6109 c-58 -9 -83 -30 -96 -76 -13 -46 5 -100 42 -127 27 -20
40 -21 296 -21 242 0 270 2 295 18 70 46 67 159 -6 199 -27 14 -454 20 -531 7z"/>
<path d="M2248 5685 c-59 -61 -57 -107 6 -179 l25 -28 925 4 925 4 25 23 c55
52 55 130 0 182 l-25 23 -922 4 -923 4 -36 -37z"/>
<path d="M4414 5711 c-28 -4 -59 -13 -68 -20 -61 -50 -52 -154 16 -193 18 -10
136 -13 533 -13 570 0 554 -2 589 69 17 36 18 43 5 79 -8 22 -27 50 -42 61
-28 21 -38 21 -505 22 -262 0 -500 -2 -528 -5z"/>
<path d="M5680 5706 c-39 -13 -80 -66 -80 -105 0 -32 32 -86 60 -101 29 -15
92 -15 118 1 33 21 63 82 56 117 -7 36 -59 89 -94 95 -14 3 -41 0 -60 -7z"/>
<path d="M6167 5709 c-56 -9 -82 -28 -97 -74 -14 -43 5 -101 43 -129 27 -20
39 -21 342 -21 302 0 315 1 342 21 15 11 34 39 42 61 13 36 12 43 -5 79 -32
66 -45 68 -349 70 -148 1 -292 -2 -318 -7z"/>
<path d="M7061 5707 c-94 -33 -101 -166 -11 -212 61 -31 140 5 161 74 27 89
-59 169 -150 138z"/>
<path d="M2286 5309 c-65 -18 -99 -88 -73 -151 49 -117 223 -81 220 45 -1 31
-8 47 -34 73 -37 36 -69 45 -113 33z"/>
<path d="M2607 5310 c-22 -4 -50 -19 -65 -34 -22 -22 -27 -36 -27 -76 0 -59
30 -96 87 -109 19 -5 149 -7 287 -6 l253 2 25 26 c49 48 46 135 -6 181 -19 17
-41 19 -268 21 -137 0 -265 -2 -286 -5z"/>
<path d="M3378 5310 c-64 -12 -98 -58 -92 -124 5 -54 39 -87 101 -97 26 -4
341 -7 698 -6 730 2 690 -2 722 75 13 32 14 42 2 76 -8 22 -27 49 -42 60 -28
21 -35 21 -690 22 -364 1 -679 -2 -699 -6z"/>
<path d="M4983 5304 c-18 -9 -41 -34 -54 -59 -23 -43 -23 -43 -5 -84 23 -51
59 -75 110 -74 50 1 88 30 104 80 11 35 11 46 -2 76 -25 62 -96 90 -153 61z"/>
<path d="M5444 5311 c-70 -7 -99 -26 -113 -75 -22 -80 16 -135 102 -147 28 -4
424 -6 879 -5 822 1 827 1 855 22 15 11 34 39 42 60 12 36 12 44 -4 78 -36 76
27 71 -885 72 -448 0 -843 -2 -876 -5z"/>
<path d="M275 4906 c-43 -19 -63 -46 -70 -91 -7 -46 8 -79 47 -108 54 -40 128
-19 169 46 26 42 18 83 -24 124 -38 37 -81 47 -122 29z"/>
<path d="M592 4910 c-70 -16 -106 -87 -79 -152 27 -65 52 -73 213 -73 163 0
188 9 213 81 12 34 11 44 -2 76 -26 61 -52 71 -191 73 -66 1 -136 -1 -154 -5z"/>
<path d="M1208 4909 c-109 -6 -131 -18 -147 -75 -12 -44 2 -94 35 -125 l26
-24 1199 1 c1185 0 1199 1 1218 20 43 47 53 102 27 153 -30 57 42 53 -1153 55
-610 0 -1152 -2 -1205 -5z"/>
<path d="M3839 4910 c-77 -5 -94 -13 -117 -57 -27 -50 -4 -128 46 -155 37 -19
1862 -19 1909 0 33 14 63 63 63 102 0 36 -29 86 -58 101 -22 11 -185 14 -897
14 -478 0 -904 -2 -946 -5z"/>
<path d="M5934 4904 c-17 -8 -41 -32 -52 -53 -27 -48 -21 -91 19 -130 89 -89
234 7 185 122 -25 61 -95 89 -152 61z"/>
<path d="M6314 4909 c-65 -8 -73 -13 -91 -56 -15 -38 -11 -96 10 -124 32 -42
44 -43 485 -47 l422 -4 40 40 c34 33 40 46 40 81 0 56 -39 100 -100 111 -53
10 -732 9 -806 -1z"/>
<path d="M539 4511 c-87 -7 -113 -23 -128 -78 -13 -46 5 -100 42 -127 28 -21
38 -21 446 -21 387 0 419 1 445 18 66 44 68 143 4 189 -32 22 -36 22 -382 24
-193 0 -385 -2 -427 -5z"/>
<path d="M1740 4510 c-96 -3 -181 -9 -189 -14 -7 -5 -22 -27 -32 -51 -22 -50
-13 -98 27 -136 l26 -24 1124 0 1124 0 29 30 c48 48 46 119 -5 173 l-22 24
-953 2 c-525 0 -1033 -1 -1129 -4z"/>
<path d="M4083 4505 c-74 -32 -92 -130 -35 -187 92 -92 249 28 179 136 -36 54
-92 74 -144 51z"/>
<path d="M4485 4513 c-50 -6 -80 -22 -98 -52 -32 -54 -19 -114 32 -158 l26
-23 690 0 c637 1 692 2 710 18 63 53 73 121 26 174 -23 26 -38 33 -87 39 -58
7 -1240 8 -1299 2z"/>
<path d="M6062 4510 c-78 -12 -113 -71 -92 -150 21 -76 12 -75 537 -75 452 0
462 0 490 21 15 11 34 39 41 62 12 37 12 46 -5 79 -33 68 -29 68 -503 69 -234
1 -444 -2 -468 -6z"/>
<path d="M7244 4506 c-17 -8 -44 -30 -59 -50 -22 -29 -26 -42 -21 -70 15 -77
91 -121 160 -92 94 39 95 173 1 212 -41 17 -42 17 -81 0z"/>
<path d="M970 4110 c-50 -12 -90 -60 -90 -110 0 -48 38 -96 89 -110 19 -5 194
-8 410 -7 415 2 418 3 454 65 39 67 -3 146 -86 161 -61 11 -730 12 -777 1z"/>
<path d="M2086 4109 c-84 -23 -111 -136 -46 -194 39 -35 122 -35 158 1 21 21
40 77 36 104 -6 32 -62 88 -94 93 -14 2 -38 1 -54 -4z"/>
<path d="M2543 4109 c-90 -7 -109 -17 -130 -67 -17 -42 -4 -99 33 -133 l26
-24 913 0 c503 0 942 2 977 5 57 5 64 8 85 39 38 56 23 144 -29 172 -23 12
-1722 20 -1875 8z"/>
<path d="M4690 4109 c-19 -4 -47 -21 -62 -38 -60 -67 -21 -164 72 -181 60 -11
695 -11 745 0 87 20 124 114 69 179 -14 17 -40 35 -57 40 -39 11 -719 11 -767
0z"/>
<path d="M5733 4104 c-40 -20 -74 -86 -66 -127 3 -15 18 -41 34 -56 89 -89
234 7 185 122 -25 62 -95 89 -153 61z"/>
<path d="M6110 4110 c-50 -12 -90 -60 -90 -110 0 -48 38 -96 89 -110 55 -15
760 -7 793 9 64 32 74 130 18 186 l-30 30 -373 1 c-204 1 -388 -2 -407 -6z"/>
<path d="M7112 4108 c-108 -24 -109 -179 -2 -217 18 -6 110 -9 228 -8 223 2
240 7 269 75 13 32 14 42 2 76 -27 75 -44 81 -262 82 -106 1 -211 -3 -235 -8z"/>
<path d="M6008 3735 c-2 -2 -36 -5 -77 -6 -60 -2 -78 -6 -101 -25 -52 -45 -44
-141 16 -181 27 -17 69 -18 800 -18 768 0 773 0 801 21 15 11 34 39 41 62 12
37 12 46 -5 79 -34 71 -1 68 -774 70 -383 1 -699 0 -701 -2z"/>
<path d="M1240 3698 c-38 -26 -66 -84 -56 -121 24 -96 170 -118 216 -32 56
104 -63 218 -160 153z"/>
<path d="M1713 3710 c-60 -6 -89 -28 -104 -81 -10 -31 -9 -43 7 -76 35 -71 1
-68 769 -69 380 -1 717 1 749 5 46 6 64 13 82 34 48 56 40 127 -19 171 -28 21
-35 21 -730 22 -386 0 -725 -2 -754 -6z"/>
<path d="M3473 3710 c-48 -7 -68 -22 -90 -63 -19 -39 -11 -83 26 -127 l28 -35
375 0 c419 0 414 -1 445 72 30 73 -8 139 -88 153 -51 9 -635 9 -696 0z"/>
<path d="M4463 3705 c-59 -25 -85 -92 -58 -149 31 -65 101 -87 163 -51 30 18
62 71 62 103 0 31 -40 83 -75 98 -42 17 -51 17 -92 -1z"/>
<path d="M4845 3710 c-16 -3 -40 -13 -52 -21 -51 -31 -55 -121 -8 -168 34 -35
91 -39 467 -37 295 1 308 2 335 22 41 31 66 78 59 112 -12 51 -47 84 -102 92
-61 10 -658 10 -699 0z"/>
<path d="M1319 3311 c-63 -7 -86 -22 -106 -69 -16 -39 -4 -99 26 -126 31 -28
119 -35 451 -32 347 2 358 4 393 64 23 40 17 89 -17 128 -19 23 -34 28 -97 34
-86 9 -567 9 -650 1z"/>
<path d="M2274 3311 c-55 -24 -84 -98 -60 -154 19 -47 62 -68 145 -72 110 -6
172 28 187 102 7 38 -16 92 -48 112 -27 17 -193 25 -224 12z"/>
<path d="M3330 3310 c-115 -8 -136 -18 -150 -71 -15 -53 -6 -87 31 -127 l31
-33 1162 2 c638 2 1196 5 1239 8 70 5 81 9 103 34 42 49 29 138 -25 174 -24
17 -96 18 -1161 19 -624 0 -1178 -3 -1230 -6z"/>
<path d="M5983 3313 c-12 -3 -36 -20 -53 -39 -98 -112 68 -257 171 -148 19 20
24 36 24 75 0 41 -5 53 -30 78 -30 29 -71 41 -112 34z"/>
<path d="M6338 3310 c-48 -9 -75 -33 -88 -79 -8 -30 -6 -43 13 -81 21 -43 25
-46 82 -57 38 -8 135 -11 260 -10 227 3 248 8 279 71 17 36 18 43 5 79 -8 22
-27 50 -42 61 -27 20 -42 21 -250 22 -122 1 -239 -2 -259 -6z"/>
<path d="M3858 2910 c-55 -7 -84 -30 -99 -80 -14 -46 6 -100 47 -127 26 -17
62 -18 559 -18 587 0 578 -1 605 65 32 76 -14 149 -102 161 -63 8 -942 8
-1010 -1z"/>
<path d="M5172 2903 c-85 -42 -85 -165 0 -206 63 -31 134 2 157 73 12 37 12
46 -2 76 -29 60 -97 85 -155 57z"/>
<path d="M5520 2908 c-37 -14 -78 -57 -85 -89 -7 -32 11 -73 48 -107 20 -19
39 -24 108 -29 104 -7 159 7 193 48 50 59 22 151 -53 177 -36 13 -178 13 -211
0z"/>
<path d="M6058 2911 c-56 -8 -84 -31 -99 -81 -14 -46 6 -100 47 -127 25 -16
53 -18 295 -18 256 0 269 1 296 21 15 11 34 39 42 61 13 36 12 43 -5 79 -31
64 -49 68 -304 70 -124 0 -246 -2 -272 -5z"/>
<path d="M3940 2511 c-25 -4 -55 -13 -67 -21 -62 -40 -55 -143 13 -195 29 -22
1649 -22 1678 0 54 41 71 112 39 165 -33 56 -5 54 -843 56 -426 0 -795 -2
-820 -5z"/>
<path d="M5840 2509 c-38 -8 -76 -46 -86 -85 -9 -34 15 -93 47 -116 30 -22 96
-26 127 -7 32 20 62 81 56 115 -6 34 -57 90 -88 96 -11 2 -37 1 -56 -3z"/>
<path d="M4157 2109 c-55 -9 -72 -20 -94 -62 -19 -38 -11 -84 25 -127 l28 -33
329 -2 c181 -1 345 2 364 6 47 11 82 48 87 95 6 45 -10 79 -49 108 -26 19 -41
20 -335 22 -169 1 -329 -2 -355 -7z"/>
<path d="M5100 2106 c-39 -12 -80 -66 -80 -103 0 -99 126 -152 199 -84 27 25
31 36 31 79 0 39 -5 57 -23 75 -30 34 -84 47 -127 33z"/>
<path d="M5434 2109 c-45 -13 -66 -42 -72 -99 -9 -91 29 -122 159 -126 105 -4
150 8 183 47 42 50 28 137 -25 165 -34 17 -199 27 -245 13z"/>
<path d="M4955 1730 c-64 -9 -80 -16 -99 -45 -34 -51 -18 -125 36 -165 29 -22
33 -22 303 -18 259 3 275 4 302 24 16 12 34 39 42 64 13 40 12 47 -5 79 -32
60 -52 65 -304 67 -124 1 -247 -2 -275 -6z"/>
<path d="M4493 1710 c-67 -15 -101 -73 -83 -140 14 -53 48 -77 120 -85 96 -11
179 2 211 35 52 52 47 129 -13 173 -20 15 -45 20 -115 22 -48 2 -103 -1 -120
-5z"/>
<path d="M4567 1310 c-66 -9 -93 -28 -108 -80 -14 -46 6 -100 47 -127 26 -17
56 -18 370 -18 332 0 343 1 371 21 15 11 34 39 42 61 13 36 12 43 -5 79 -32
66 -43 68 -369 70 -159 1 -316 -2 -348 -6z"/>
<path d="M5461 1307 c-97 -34 -101 -173 -5 -213 94 -39 190 56 150 150 -24 57
-84 84 -145 63z"/>
<path d="M5161 907 c-47 -16 -74 -56 -74 -107 0 -53 28 -91 80 -109 37 -13 44
-13 79 5 25 13 46 34 58 59 17 35 18 42 5 78 -23 65 -84 96 -148 74z"/>
<path d="M5498 911 c-75 -16 -113 -85 -85 -153 21 -50 51 -67 134 -74 84 -8
169 8 200 38 46 43 35 137 -20 173 -29 19 -170 29 -229 16z"/>
</g>
</svg>
